<?xml version="1.0" encoding="UTF-8" standalone="no"?>
<svg
   xmlns:dc="http://purl.org/dc/elements/1.1/"
   xmlns:cc="http://creativecommons.org/ns#"
   xmlns:rdf="http://www.w3.org/1999/02/22-rdf-syntax-ns#"
   xmlns:svg="http://www.w3.org/2000/svg"
   xmlns="http://www.w3.org/2000/svg"
   viewBox="0 0 160 160"
   height="160"
   width="160"
   xml:space="preserve"
   id="svg2"
   version="1.1"><metadata
     id="metadata8"><rdf:RDF><cc:Work
         rdf:about=""><dc:format>image/svg+xml</dc:format><dc:type
           rdf:resource="http://purl.org/dc/dcmitype/StillImage" /></cc:Work></rdf:RDF></metadata><defs
     id="defs6" /><g
     transform="matrix(1.3333333,0,0,-1.3333333,0,160)"
     id="g10"><g
       transform="scale(0.1)"
       id="g12"><path
         id="path14"
         style="fill:#ffffff;fill-opacity:1;fill-rule:nonzero;stroke:none"
         d="M 1200,0 H 0 V 1200 H 1200 V 0" /><path
         id="path16"
         style="fill:#b2c6c2;fill-opacity:1;fill-rule:nonzero;stroke:none"
         d="m 579.238,1134.25 c 2.528,-0.73 5.106,-2.24 7.813,-0.46 0.48,0 0.957,0 1.437,0 1.637,0.14 3.028,-0.19 3.719,-2.01 -0.867,-0.12 -1.769,-0.05 -2.492,-0.38 -1.617,-0.74 -1.801,-4.04 -0.184,-4.44 4.239,-1.02 8.157,-3.37 12.657,-3.25 3.554,0.1 6.882,-0.76 10.046,-2.21 1.629,-0.74 3.25,-0.67 4.914,-0.67 1,-0.01 1.606,0.38 1.493,1.5 -0.137,1.33 -3.075,5.01 -4.258,4.9 -4.465,-0.41 -8.133,2.13 -12.219,3.08 -1.004,0.23 -2.391,0.58 -2.57,1.73 -0.774,4.84 -4.235,5.34 -8.125,5.37 -1.539,0.01 -3.168,-0.4 -4.586,0.47 -2.106,1.29 -4.403,0.89 -6.656,0.94 -1.172,0.03 -2.153,-0.29 -2.45,-1.6 -0.312,-1.38 0.317,-2.63 1.461,-2.97" /><path
         id="path18"
         style="fill:#b2c6c2;fill-opacity:1;fill-rule:nonzero;stroke:none"
         d="m 135.402,166.941 c 0.332,1.09 0.762,1.957 -0.578,2.707 -1.285,0.711 -1.996,0.262 -2.539,-0.886 v 0 c -1.789,0.457 -1.965,1.379 -0.308,2.097 1.753,0.75 2.625,2.071 3.066,3.7 0.523,1.929 -0.563,2.871 -2.406,2.043 -0.903,-0.411 -1.492,-0.563 -2.203,0.148 -0.719,0.711 -1.262,1.469 -0.786,2.531 0.293,0.66 0.641,1.289 0.918,1.949 0.551,1.321 -0.031,2.461 -1.027,3.129 -0.973,0.653 -1.738,-0.308 -2.437,-0.968 -0.965,-0.903 -1.668,-2 -2.465,-3.039 -1.453,-1.883 -1.149,-3.262 0.801,-4.372 1.761,-1.011 2.05,-2.449 1.492,-4.25 -0.43,-1.378 -0.992,-2.628 -2.117,-3.64 -1.399,-1.262 -1.829,-2.762 -0.454,-4.379 0.11,-1.012 0.473,-1.742 1.547,-0.883 1.188,0.953 2.266,2.043 3.418,3.094 0.051,-1.672 1.145,-2.301 2.836,-2.203 2.059,0.121 2.723,1.511 3.242,3.222" /><path
         id="path20"
         style="fill:#b2c6c2;fill-opacity:1;fill-rule:nonzero;stroke:none"
         d="m 878.082,101.262 c -0.105,2.437 1.27,3.367 -0.926,2.418 -0.367,-0.258 -0.707,-0.5 -1.031,-0.731 0.168,0.223 0.309,0.481 0.426,0.762 0.199,-0.012 0.394,-0.02 0.605,-0.031 0.278,1.699 0.438,2.761 0.485,3.25 0.636,1.07 1.531,0.41 4.226,-1.668 -2.515,-0.633 -3.89,-1.563 -3.785,-4 z m -7.57,-1.512 c 0.105,0.0195 0.207,0.0391 0.304,0.0586 -0.101,-0.0195 -0.207,-0.0391 -0.304,-0.0586 z m -0.11,-0.0117 c -0.148,-0.0078 -0.293,-0.0195 -0.441,-0.0078 0.148,-0.0117 0.297,0 0.441,0.0078 z m 2.086,3.4607 c 0.524,-0.558 0.961,-1.64 2.008,-1.379 -1.734,-1.179 -2.738,-1.75 -3.527,-1.9684 0.879,0.2574 1.531,0.9684 1.476,2.2504 0.125,1.668 -1.043,1.668 -2.097,1.75 0.39,-0.032 0.836,-0.032 1.441,-0.032 0.246,-0.179 0.484,-0.379 0.699,-0.621 z m 7.332,4.942 c -1.55,1.07 -2.664,0.519 -3.515,-0.969 -0.621,-1.09 -0.219,-3.473 -2.282,-2.742 -1.32,0.468 -3.05,0.8 -3.953,2.261 -0.371,0.61 -0.703,1.297 -1.23,1.739 -1.07,0.879 -2.692,0.359 -2.539,-0.602 0.437,-2.84 -1.664,-3.918 -3.031,-5.578 -1.481,-1.789 -1.106,-2.8398 1.355,-3.3398 1.172,-0.2383 1.832,-0.3985 2.117,-1.8086 0.582,-2.8907 3.328,-3.7032 5.516,-1.5899 1.719,1.6485 3.023,3.7266 5.867,3.4571 0.598,-0.0586 1.359,0.5429 1.281,1.0512 -0.441,2.929 2.27,3.859 3.703,5.789 -1.179,0.839 -2.226,1.601 -3.289,2.332" /><path
         id="path22"
         style="fill:#b2c6c2;fill-opacity:1;fill-rule:nonzero;stroke:none"
         d="m 1050.99,61.1289 c -2.51,1.3906 -5.54,1.0703 -6.49,-1.4101 -0.79,-2.0469 -1.76,-2.5704 -3.68,-2.9493 -2.56,-0.5078 -2.95,-1.6484 -1.55,-3.8086 0.84,-1.3007 1.46,-2.4609 0.72,-3.9609 -0.24,-0.4883 -0.18,-1.0195 0.2,-1.3281 1.69,-1.3516 3.69,-0.7031 5.54,-0.6211 1.77,0.0703 1.79,1.5508 1.88,2.9297 0.15,2.3593 -0.59,4.8203 0.7,7.0703 0.24,0 0.48,0 0.71,0 0.48,0 0.97,-0.0117 1.44,0.0078 1.08,0.043 1.83,0.4805 2.09,1.6016 0.31,1.3593 -0.56,1.9101 -1.56,2.4687" /><path
         id="path24"
         style="fill:#b2c6c2;fill-opacity:1;fill-rule:nonzero;stroke:none"
         d="m 96.7109,334.605 c 3.3401,2.551 6.2071,5.758 10.4611,7.051 1.039,0.317 2.344,1.489 1.859,3.09 -0.445,1.473 -1.801,1.297 -3.054,1.438 -3.18,-0.489 -5.387,-2.996 -8.227,-4.239 -1.7109,-0.746 -2.918,-2.734 -4.2227,-4.273 -0.9179,-1.09 -0.5117,-2.274 0.3711,-3.211 0.9414,-0.996 1.8399,-0.602 2.8125,0.144" /><path
         id="path26"
         style="fill:#b2c6c2;fill-opacity:1;fill-rule:nonzero;stroke:none"
         d="m 82.918,741.145 c 1.2383,1.796 1.8515,3.855 2.2617,5.988 0.3242,1.055 0.0508,1.972 -1.0234,2.308 -1.1329,0.356 -2.3516,0.586 -3.1524,-0.781 -1.043,-1.773 -1.5312,-3.746 -2.207,-5.656 -0.418,-1.188 -0.9492,-2.375 0.4648,-3.137 1.5703,-0.844 2.7656,-0.015 3.6563,1.278" /><path
         id="path28"
         style="fill:#b2c6c2;fill-opacity:1;fill-rule:nonzero;stroke:none"
         d="m 1070.4,1074.18 c 0.65,-0.25 1.41,-0.19 2.3,-0.29 0.78,0.1 1.84,-0.01 2.65,0.39 5.13,2.55 5.48,5.63 1.14,9.34 -1.84,1.57 -3.65,1.38 -4.07,-0.82 -0.29,-1.53 -0.82,-1.47 -1.91,-1.69 -2.06,-0.42 -3.34,-1.72 -3.48,-3.95 -0.14,-2.44 1.9,-2.42 3.37,-2.98" /><path
         id="path30"
         style="fill:#b2c6c2;fill-opacity:1;fill-rule:nonzero;stroke:none"
         d="m 1114.32,254.559 c -0.7,-0.657 -1.37,-1.34 -2.12,-1.93 -2.95,-2.309 -3.49,-4.93 -1.62,-8.07 1.21,-2.028 3.39,-2.243 4.93,-0.489 1.84,2.114 1.69,2.785 -1.65,6.133 1.05,0.613 1.89,1.012 2.62,1.559 0.88,0.66 1.18,1.484 0.26,2.414 -0.72,0.734 -1.44,1.316 -2.42,0.383" /><path
         id="path32"
         style="fill:#b2c6c2;fill-opacity:1;fill-rule:nonzero;stroke:none"
         d="m 812.793,93.5898 c -0.719,0.3086 -1.629,0.1915 -2,0.2188 -1.406,-0.0391 -2.383,0.082 -3.254,-0.4102 -0.68,-0.3789 -1.793,-0.1367 -1.976,-1.2265 -0.188,-1.1211 0.636,-1.7617 1.394,-2.3008 1.879,-1.3594 4.008,-1.4414 6.125,-0.8203 1.25,0.3711 2.504,0.9805 2.383,2.6797 -0.117,1.6992 -1.692,1.4297 -2.672,1.8593" /><path
         id="path34"
         style="fill:#b2c6c2;fill-opacity:1;fill-rule:nonzero;stroke:none"
         d="m 83.1172,948.512 c 1.8008,1.015 3.6914,1.508 5.7851,1.621 1.5,0.082 2.5899,1.137 2.8321,2.805 -0.3867,1.335 -1.4297,1.574 -2.5391,1.281 -2.5234,-0.664 -5.0273,-1.41 -7.5039,-2.227 -1.0351,-0.336 -1.5664,-1.215 -1.0586,-2.277 0.4649,-0.977 1.1172,-1.977 2.4844,-1.203" /><path
         id="path36"
         style="fill:#b2c6c2;fill-opacity:1;fill-rule:nonzero;stroke:none"
         d="m 1074.56,1047.06 c -0.38,-1.5 0.8,-1.77 1.86,-2.01 2.18,-0.47 4.36,-0.93 6.56,-1.31 0.66,-0.12 1.5,-0.18 1.85,0.64 0.42,0.96 -0.16,1.6 -0.92,2.03 -2.08,1.16 -4.23,2.13 -6.62,2.36 -1.39,0.18 -2.39,-0.35 -2.73,-1.71" /><path
         id="path38"
         style="fill:#b2c6c2;fill-opacity:1;fill-rule:nonzero;stroke:none"
         d="m 920.063,94.0703 c -1.239,-0.7109 -2.348,-1.6601 -3.625,-2.289 -0.875,-0.4219 -2.454,-0.0118 -1.981,-1.7422 0.352,-1.2774 1.563,-1.3008 2.168,-1.2891 2.555,-0.0586 4.168,1.0195 5.746,2.0781 1.082,0.7305 1.766,1.9805 0.957,3.0938 -0.781,1.0898 -2.172,0.7773 -3.265,0.1484" /><path
         id="path40"
         style="fill:#b2c6c2;fill-opacity:1;fill-rule:nonzero;stroke:none"
         d="m 1075.72,221.379 c -0.17,0.316 -0.33,0.633 -0.5,0.949 0.17,-0.316 0.33,-0.633 0.5,-0.949 1.3,-0.883 2.77,-1.266 4.25,-1.574 -1.48,0.308 -2.95,0.691 -4.25,1.574 z m 1.16,-116.758 c 0.3,0.008 0.62,-0.031 0.93,-0.062 -0.31,0.031 -0.63,0.07 -0.93,0.062 z m -14.67,-7.7108 c 0.06,0.3007 0.09,0.6015 0.08,0.9101 0.01,-0.3086 -0.02,-0.6094 -0.08,-0.9101 z m -1.66,-3.8086 c -1.22,-0.3711 -2.43,-0.6914 -3.66,-0.9414 -1.22,-0.25 -2.45,-0.4414 -3.68,-0.5391 1.23,0.0977 2.46,0.2891 3.68,0.5391 1.23,0.25 2.44,0.5703 3.66,0.9414 0.49,1 1.07,1.9492 1.42,2.9375 -0.35,-0.9883 -0.93,-1.9375 -1.42,-2.9375 z m -41.79,-2.9024 c 3.8,0.2305 5.13,1.5625 4.33,4.3321 -0.9,2.6601 -1.67,5.1992 -4.1,7.2187 -1.59,1.301 -2.82,2.309 -4.88,2.16 -1.81,-0.129 -2.58,0.871 -2.56,2.629 0.02,2.582 -0.42,5.211 2.12,7.141 1.44,1.082 0.33,3.281 1.5,4.621 v 0 c 0.32,0.148 0.73,0.508 0.96,0.418 5.77,-2.207 11.77,-0.739 17.65,-1.117 1.25,-0.082 2.41,-0.102 3,-1.454 1.1,-1.398 2.02,-3.019 3.35,-4.148 1.63,-1.379 0.51,-3.211 1.21,-4.691 0.02,-0.02 -0.52,-0.411 -0.83,-0.481 -0.46,-0.09 -1.04,-0.019 -1.09,0.57 -0.05,0.704 0.3,1.473 0.13,2.122 -0.44,1.679 -1.15,3.062 -3.36,3.062 -2.29,0 -2.92,-1.312 -2.99,-3.172 -0.04,-1.238 -0.13,-2.301 -1.36,-3.07 -1.06,-0.66 -1.06,-1.949 -0.72,-2.949 0.61,-1.782 0.76,-3.7504 2.05,-5.2621 v 0 c -0.05,-1.418 0.28,-2.6797 1.44,-3.5976 0.25,-0.5704 0.59,-1.1329 1.19,-1.2618 3.13,-0.6679 2.54,-2.7187 2.13,-4.8007 -1.09,-0.1875 -1.37,0.5312 -1.45,1 -0.44,2.621 -2.11,3.0195 -4.42,2.9296 -3.98,-0.1484 -4.08,-0.1679 -2.98,-4.3593 -3.49,0 -6.91,0 -10.32,0 -0.24,0.2422 -0.47,0.4922 -0.71,0.7304 0,0.5899 0.09,1.1407 0.71,1.4297 z m -8.66,-9.3711 v 0 c 0.19,-0.039 0.37,-0.0586 0.55,-0.0586 -0.18,0 -0.36,0.0196 -0.55,0.0586 z m -1.96,0.1016 c 0.32,-0.0586 0.64,-0.1016 0.97,-0.1094 -0.33,0.0078 -0.65,0.0508 -0.97,0.1094 z m -5.52,7.2187 c -1.87,1.1016 -3.975,0.461 -5.979,0.6016 -0.739,0.0391 -1.754,-0.0898 -1.911,-0.7187 -0.8,-3.2422 -4.859,-2.3594 -6.179,-5.0704 -0.5,-1.0312 -2.278,-1.3125 -2.821,0.2891 -0.691,2.0391 -2.16,1.9219 -3.722,1.9102 -1.317,1.6601 0.633,2.1015 1.066,3.1289 0.66,1.5703 1.016,1.9297 2.711,0.9023 2.164,-1.3125 3.617,1.0274 4.141,2.3086 1.656,4.0586 5.648,2.7813 8.402,4.2109 0.84,0.4297 1.41,-0.7226 2.142,-1.0625 1.27,-0.5898 2.23,-1.9101 3.87,-1.5703 0.46,-1.1367 1.98,-1.8867 1.14,-3.4883 -0.63,-1.2187 -1.07,-2.4882 -2.86,-1.4414 z M 899.121,105.34 c 0.609,0.101 0.809,-0.141 0.887,-0.36 -0.125,0.258 -0.34,0.45 -0.887,0.36 z m -0.387,-2.809 c 0.2,0 0.379,0.028 0.551,0.071 -0.168,-0.051 -0.351,-0.071 -0.551,-0.071 z m -64.148,-1.832 c -1.07,-0.109 -2.137,-0.25 -3.203,-0.429 -0.738,-0.6997 -1.317,-1.2309 -1.809,-1.5786 -0.246,-0.1719 -0.469,-0.3008 -0.679,-0.3906 0.21,0.0898 0.433,0.2187 0.679,0.3906 0.492,0.3477 1.071,0.8789 1.809,1.5786 1.066,0.179 2.133,0.32 3.203,0.429 1.066,0.11 2.137,0.18 3.211,0.242 -1.074,-0.062 -2.145,-0.132 -3.211,-0.242 z m -693.637,67.313 c 0.016,-0.063 0.024,-0.121 0.035,-0.192 -0.011,0.071 -0.019,0.129 -0.035,0.192 -0.004,0.25 -0.011,0.5 -0.019,0.75 0.008,-0.25 0.015,-0.5 0.019,-0.75 z m -30.273,180.91 c 0.238,0.086 0.469,0.219 0.699,0.336 -0.23,-0.117 -0.461,-0.25 -0.699,-0.336 z m -21.1174,3.176 c -0.2773,-0.258 -0.5352,-0.532 -0.7773,-0.821 0.2421,0.289 0.5,0.563 0.7773,0.821 z m 2.2148,1.847 c 0.3008,0.246 0.5977,0.493 0.8829,0.75 0.082,0.043 0.164,0.09 0.2539,0.145 -0.0899,-0.055 -0.1719,-0.102 -0.2539,-0.145 -0.2852,-0.257 -0.5821,-0.504 -0.8829,-0.75 -0.4492,-0.363 -0.9101,-0.722 -1.3554,-1.09 0.4453,0.368 0.9062,0.727 1.3554,1.09 z m 0.1368,134.09 c 0.2461,0.27 0.4843,0.547 0.7226,0.828 0.711,0.84 1.3945,1.711 2.1524,2.504 -0.7579,-0.793 -1.4414,-1.664 -2.1524,-2.504 -0.2383,-0.281 -0.4765,-0.558 -0.7226,-0.828 -0.6954,-0.117 -1.3438,-0.312 -1.9336,-0.594 0.5898,0.282 1.2382,0.477 1.9336,0.594 z M 58.7656,464.254 c -0.25,-0.242 -0.5,-0.484 -0.75,-0.727 v 0 c 0.25,0.243 0.5,0.485 0.75,0.727 z m 7.5235,48.422 c 0.5742,0.699 1.1953,1.371 1.8398,2.031 0.2188,0.508 0.543,0.902 0.9766,1.188 -0.4336,-0.286 -0.7578,-0.68 -0.9766,-1.188 -0.6445,-0.66 -1.2656,-1.332 -1.8398,-2.031 -0.8594,-1.047 -1.6094,-2.156 -2.1719,-3.363 0.5625,1.207 1.3125,2.316 2.1719,3.363 z m 28.5117,302.558 c 0.0078,0.149 0.0195,0.293 0.039,0.434 -0.0195,-0.141 -0.0312,-0.285 -0.039,-0.434 0.039,-0.32 -0.0078,-0.597 -0.1055,-0.847 0.0977,0.25 0.1445,0.527 0.1055,0.847 -0.4727,-0.246 -0.9453,-0.492 -1.418,-0.738 v 0 c 0.4727,0.246 0.9453,0.492 1.418,0.738 z m 3.582,12.981 v 0 c 0.0156,0.957 0.0274,1.91 0.0391,2.867 -0.0117,-0.957 -0.0235,-1.91 -0.0391,-2.867 z m 52.7812,231.245 c 0.512,-0.32 0.996,-0.7 1.504,-1.03 0.168,-0.12 0.34,-0.23 0.516,-0.32 0.257,-0.18 0.511,-0.32 0.761,-0.44 0.5,-0.24 0.977,-0.36 1.426,-0.37 -0.449,0.01 -0.926,0.13 -1.426,0.37 -0.25,0.12 -0.504,0.26 -0.761,0.44 -0.176,0.09 -0.348,0.2 -0.516,0.32 -0.508,0.33 -0.992,0.71 -1.504,1.03 z m -5.199,4.45 c -1.129,-0.33 -2.223,-0.82 -3.348,-1.16 1.125,0.34 2.219,0.83 3.348,1.16 0.238,0.23 0.476,0.47 0.715,0.7 -0.239,-0.23 -0.477,-0.47 -0.715,-0.7 z m 921.075,-23.11 c -0.66,0.02 -1.31,0.04 -1.97,0.04 0.66,0 1.31,-0.02 1.97,-0.04 0,0.25 0.01,0.5 0.01,0.75 0,-0.25 -0.01,-0.5 -0.01,-0.75 z m -15.86,-108.109 c -0.17,0.067 -0.33,0.149 -0.48,0.243 0.15,-0.094 0.31,-0.176 0.48,-0.243 z m 11.57,-16.523 c -0.26,0.242 -0.49,0.492 -0.69,0.738 0.2,-0.246 0.43,-0.496 0.69,-0.738 z m 3.55,-2.141 c 0.28,-0.066 0.53,-0.097 0.75,-0.078 v 0 c -0.22,-0.019 -0.47,0.012 -0.75,0.078 -0.27,0.067 -0.57,0.172 -0.87,0.313 0.3,-0.141 0.6,-0.246 0.87,-0.313 z m 19.47,-230.699 c 0.35,-0.613 0.77,-1.156 1.25,-1.633 -0.48,0.477 -0.9,1.02 -1.25,1.633 z m 2.83,-6.062 c 0.14,0.48 0.13,1.082 0.06,1.746 -0.49,0.203 -0.9,0.519 -1.28,0.883 0.38,-0.364 0.79,-0.68 1.28,-0.883 0.07,-0.664 0.08,-1.266 -0.06,-1.746 z m -4.49,-178.629 c 1.24,-1.766 2.98,-3.332 0.95,-5.563 -1.92,-1.32 -2.95,-0.426 -3.6,1.438 0.71,1.449 2.41,2.242 2.65,4.125 z m -9.14,-247.719 c -0.23,-0.004 -0.47,-0.008 -0.71,-0.008 0.24,0 0.48,0.004 0.71,0.008 0.71,-0.023 1.38,0.043 1.98,0.262 -0.6,-0.219 -1.27,-0.285 -1.98,-0.262 z m 1.47,-146.328 v 0 l -0.02,0.012 z m -132.612,0.012 c 3.59,0 7.18,0 10.774,0 0.285,0.046 0.55,0.07 0.796,0.078 -0.246,-0.008 -0.511,-0.032 -0.796,-0.078 v 0 c -3.594,0 -7.184,0 -10.774,0 -0.246,0 -0.492,0 -0.738,0.007 0.246,-0.007 0.492,-0.007 0.738,-0.007 z m -750.414,37.437 c -0.234,-0.769 -1.207,-1.84 -2.074,-2.379 0.867,0.539 1.84,1.61 2.074,2.379 z m -46.703,29.59 c 0.469,0.742 0.73,1.422 0.738,1.98 -0.008,-0.558 -0.269,-1.238 -0.738,-1.98 z M 90.4961,464.047 c 0.2383,0.019 0.4531,-0.047 0.625,-0.184 -0.1719,0.137 -0.3867,0.203 -0.625,0.184 z m 18.1719,159.437 c 0.215,-0.015 0.43,-0.023 0.645,-0.019 -0.215,-0.004 -0.43,0.004 -0.645,0.019 z M 93.3633,854.152 v 0 0 c 0.5156,0.227 1.0273,0.453 1.539,0.684 -0.5117,-0.231 -1.0234,-0.457 -1.539,-0.684 z M 209.402,106.77 c 0.133,0.011 0.27,0.011 0.407,0.011 -0.137,0 -0.274,0 -0.407,-0.011 -0.347,-0.129 -0.644,-0.309 -0.882,-0.551 0.238,0.242 0.535,0.422 0.882,0.551 z M 99.4063,251.563 c -0.0938,0.015 -0.1836,0.039 -0.2735,0.074 0.4024,0.414 0.8477,0.676 1.3122,0.847 -0.4645,-0.171 -0.9098,-0.433 -1.3122,-0.847 0.0899,-0.035 0.1797,-0.059 0.2735,-0.074 z m 15.5817,54.121 c 2.883,0.722 5.762,1.449 8.641,2.171 -2.879,-0.722 -5.758,-1.449 -8.641,-2.171 z m -8.422,176.656 c 0.301,-0.063 0.649,-0.067 0.957,-0.094 0.911,0.063 1.989,-0.144 2.286,0.91 -0.297,-1.054 -1.375,-0.847 -2.282,-0.914 -0.308,0.031 -0.66,0.035 -0.961,0.098 z m -26.1793,48.937 c 0.125,0.012 0.25,0.016 0.3789,0.02 -0.1289,-0.004 -0.2539,-0.008 -0.3789,-0.02 z m 8.0703,24.887 c 0.2188,2.285 2.6797,3.316 4.625,1.957 1.5469,-1.078 2.7188,-1.094 4.2188,-0.226 1.625,0.941 4.4612,1.812 5.0272,0.683 1.024,-2.047 -2.066,-2.262 -3.1639,-3.504 -0.2344,-0.261 -0.4961,-0.496 -0.7461,-0.746 -5.1485,-2.344 -9.1602,-6.601 -14.7617,-8.316 -2.3633,-0.727 -4.5743,-2.547 -6.4024,-4.504 -0.5781,-0.621 -1.4375,-1.309 -2.1445,-0.492 -0.793,0.914 0.2812,1.589 0.8945,1.961 2.2539,1.351 3.8711,3.062 4.5664,5.714 0.3281,1.254 1.5117,2.122 2.7031,2.77 2.75,0.434 4.8633,1.328 5.1836,4.703 z m 9.5899,54.215 c -0.4297,-0.305 -0.8008,-0.707 -1.0821,-1.258 v 0 c 0.2813,0.547 0.6524,0.953 1.0821,1.258 z m -0.3711,1.195 c 0.2969,0.34 0.5547,0.707 0.75,1.129 -0.1875,0.027 -0.3594,0.027 -0.5195,0 0.1601,0.027 0.332,0.027 0.5195,0 -0.1953,-0.422 -0.4531,-0.789 -0.75,-1.129 -0.1953,-0.226 -0.4102,-0.441 -0.6328,-0.648 0.2226,0.207 0.4375,0.422 0.6328,0.648 z m 13.7112,12.668 c 0.629,0.5 0.758,1.098 0.754,1.723 0.004,-0.625 -0.125,-1.223 -0.754,-1.723 z m 145.465,241.481 c -0.149,0.015 -0.293,0.043 -0.426,0.086 0.133,-0.043 0.277,-0.071 0.426,-0.086 z m 0.984,-0.039 c 0.961,-0.008 1.926,0.105 2.367,0.82 -0.441,-0.715 -1.406,-0.828 -2.367,-0.82 -0.246,0.004 -0.496,0.004 -0.738,0.015 0.242,-0.011 0.492,-0.011 0.738,-0.015 z M 149.801,196.211 c -1.235,-0.82 -2.383,-2.41 -2.391,-3.609 0.07,-0.692 -0.144,-1.532 0.543,-1.942 -0.687,0.41 -0.473,1.25 -0.547,1.942 0.008,1.199 1.16,2.789 2.395,3.609 z m 32.109,542.488 c 0.031,-0.109 0.055,-0.226 0.067,-0.355 -0.012,0.129 -0.036,0.246 -0.067,0.355 z m -0.043,0.145 c 0.004,0 0.004,-0.004 0.004,-0.004 0,0 0,0.004 -0.004,0.004 z m -1.012,0.629 c -0.472,-0.012 -0.953,-0.18 -1.167,-0.512 0.214,0.332 0.695,0.5 1.167,0.516 0.458,-0.024 0.743,-0.184 0.911,-0.434 -0.168,0.25 -0.453,0.41 -0.911,0.43 z M 150.68,439.258 c 0.429,-0.188 0.898,-0.231 1.375,-0.238 -0.477,0.007 -0.946,0.05 -1.375,0.238 z m 2.09,-0.235 c 0.418,0.004 0.859,-0.015 1.277,0.012 -0.418,-0.027 -0.859,-0.008 -1.281,-0.012 -0.235,0 -0.473,-0.003 -0.711,-0.003 0.238,0 0.476,0.003 0.715,0.003 z m 95.519,-91.855 c -0.027,-0.023 -0.059,-0.039 -0.09,-0.063 0.031,0.024 0.063,0.04 0.09,0.063 z m -1.266,-0.383 c 0.375,0.012 0.766,0.082 1.063,0.242 -0.297,-0.16 -0.688,-0.23 -1.063,-0.242 -0.562,0.004 -1.113,0.086 -1.351,0.516 0.238,-0.43 0.789,-0.512 1.351,-0.516 z m -11.691,663.305 c -1.074,-0.13 -1.559,-1.15 -1.961,-2.15 -0.031,-0.73 0.301,-1.37 0.891,-1.47 -0.59,0.1 -0.926,0.74 -0.891,1.47 0.402,1 0.887,2.02 1.961,2.15 z m -28.68,28.43 c 0.121,0.68 0.723,0.81 1.403,0.81 0.425,-0.02 0.769,-0.12 0.988,-0.33 -0.219,0.21 -0.563,0.31 -0.988,0.33 -0.68,0 -1.282,-0.13 -1.403,-0.81 z M 85.418,534.172 v 0 c -0.2344,-0.004 -0.4649,-0.012 -0.6992,-0.02 0.2343,0.008 0.4648,0.016 0.6992,0.02 z m 20.918,56.933 c 0.961,0.243 1.918,0.485 2.879,0.723 -0.961,-0.238 -1.918,-0.48 -2.879,-0.723 z M 86.5078,535.891 c -0.1758,-0.227 -0.3008,-0.547 -0.3594,-0.996 v 0 c 0.0586,0.449 0.1836,0.769 0.3594,0.996 z m 0.293,0.269 c 0.2187,0.137 0.4726,0.192 0.7461,0.199 -0.2735,-0.007 -0.5274,-0.062 -0.7461,-0.199 z M 108.508,252.352 c 0.719,0.246 1.433,0.488 2.152,0.734 1.442,1.07 2.883,1.109 4.32,-0.016 v 0 c -1.437,1.125 -2.878,1.086 -4.32,0.016 -0.719,-0.246 -1.433,-0.488 -2.152,-0.734 z m 196.191,696.906 c 0.707,0 1.422,0.047 2.125,-0.012 -0.703,0.059 -1.418,0.012 -2.125,0.012 -0.828,0 -1.656,0.019 -2.48,-0.004 0.824,0.023 1.652,0.004 2.48,0.004 z M 169.527,1065.23 c 0,0 0,0 0,0 -0.031,0.63 -0.496,0.72 -0.953,0.7 0.457,0.02 0.926,-0.07 0.953,-0.7 z M 109.949,623.516 v 0 c -0.57,-0.52 -1.187,-0.711 -1.824,-0.758 0.637,0.047 1.254,0.238 1.824,0.758 z m 952.191,417.154 c 0.64,0.1 1.29,0.14 1.94,0.16 -0.65,-0.02 -1.3,-0.06 -1.94,-0.16 z m 7.63,-126.131 c 0.3,0.008 0.6,-0.012 0.89,-0.047 -0.29,0.035 -0.59,0.055 -0.89,0.047 z m 16.81,-233.777 c 0.17,-0.199 0.35,-0.399 0.53,-0.586 -0.18,0.187 -0.36,0.387 -0.53,0.586 z m -6.57,-186.973 c 0.01,0.246 0.02,0.492 0.02,0.738 0.54,0.918 1.06,1.856 1.64,2.746 -0.58,-0.89 -1.1,-1.828 -1.64,-2.746 0,-0.246 -0.01,-0.492 -0.02,-0.738 z m -26.32,316.809 c 0.21,0.222 0.32,0.543 0.33,0.961 0.03,0.601 -0.15,1.07 -0.59,1.296 0.44,-0.226 0.62,-0.695 0.59,-1.296 -0.01,-0.418 -0.12,-0.739 -0.33,-0.961 z m -0.94,-0.352 c 0.4,0.012 0.69,0.129 0.9,0.328 -0.21,-0.199 -0.5,-0.316 -0.9,-0.328 z m -5.49,-24.656 v 0 c 0.8,-0.11 1.01,-0.633 1.02,-1.262 -0.01,0.629 -0.22,1.152 -1.02,1.262 z m 25.4,-137.567 c -2.3,0.012 -3.38,-0.273 -3.43,-1.054 0.05,0.781 1.13,1.066 3.43,1.054 1.83,0.172 3.64,-0.703 5.48,-0.589 -1.84,-0.114 -3.65,0.761 -5.48,0.589 z m 62.16,-326.468 c 0.75,-0.367 1.26,-0.504 1.58,-0.469 0.19,0.023 0.32,0.105 0.39,0.242 -0.07,-0.137 -0.2,-0.219 -0.39,-0.242 -0.32,-0.035 -0.83,0.102 -1.58,0.469 z m 0.01,0.425 c 0,0.418 -0.05,0.833 -0.18,1.208 0.13,-0.375 0.18,-0.79 0.18,-1.208 z m -57.69,-55.925 c -1.12,0.949 -1.52,1.843 -1.21,2.535 -0.15,-0.457 0.23,-0.899 1.22,-1.055 0.02,0.27 0.06,0.481 0.12,0.613 -0.06,-0.179 -0.1,-0.386 -0.11,-0.613 -0.01,0 -0.01,0 -0.01,0 0,-0.133 0,-0.273 0.01,-0.426 0.02,-0.433 -0.45,-1.25 0.68,-1.066 0.12,0.02 0.25,0.027 0.37,0.035 0.57,-1.398 1.4,-2.176 1.09,-3.629 0.4,1.875 -1.1,2.61 -2.16,3.606 z m -91.804,60.207 c 0.148,0.129 0.301,0.254 0.449,0.371 -0.148,-0.117 -0.301,-0.242 -0.449,-0.371 z m 4.504,-211.313 c 0.062,-0.301 0.101,-0.597 0.078,-0.89 0.023,0.293 -0.016,0.589 -0.078,0.89 z m -6.391,210.199 c 0.133,-0.769 0.383,-1.421 0.754,-1.906 -0.371,0.485 -0.621,1.137 -0.754,1.906 z m 1.434,0.723 c -0.156,-0.082 -0.317,-0.16 -0.477,-0.242 0.16,0.082 0.321,0.16 0.477,0.242 0.078,0.063 0.152,0.129 0.226,0.195 -0.074,-0.066 -0.148,-0.132 -0.226,-0.195 z m 2.617,2.488 c 0.254,-0.203 0.609,-0.273 0.992,-0.3 -0.383,0.027 -0.738,0.097 -0.992,0.3 z m -1.078,-210.078 c -1.399,0.039 -2.059,-0.742 -2.442,-1.711 0.383,0.981 1.043,1.75 2.438,1.711 0.895,-0.031 1.805,-0.609 2.477,-1.41 -0.672,0.801 -1.582,1.379 -2.473,1.41 z m 4.801,210.114 c -0.489,-0.301 -1.149,-0.379 -1.875,-0.36 -0.262,0.004 -0.535,0 -0.797,0.016 0.262,-0.016 0.535,-0.012 0.797,-0.016 0.726,-0.019 1.386,0.059 1.875,0.36 z m 1.922,-217.196 v 0 c -0.915,0.121 -1.059,0.781 -1,1.52 -0.059,-0.731 0.085,-1.399 1,-1.52 z m 61.655,887.817 c 2.4,-0.715 4.81,-1.434 7.22,-2.149 0.23,-0.008 0.47,-0.015 0.7,-0.023 -0.23,0.008 -0.47,0.015 -0.7,0.023 -2.41,0.715 -4.82,1.434 -7.22,2.149 z m -16.68,-50.77 c 0.26,0.164 0.41,0.461 0.44,0.828 -0.15,0.477 -0.31,1.078 -0.73,1.266 0.42,-0.188 0.58,-0.789 0.73,-1.266 -0.03,-0.367 -0.18,-0.664 -0.44,-0.828 z m 68.55,-625.988 v 0 c -0.03,-0.449 -0.06,-0.84 -0.09,-1.176 0.03,0.336 0.06,0.727 0.09,1.176 z m -90.16,0.551 c -1.92,-0.45 -1.02,-2.426 -1.6,-3.633 -1.27,0.066 -1.22,1.359 -1.89,1.976 -1.41,1.297 -2.69,1.965 -4.76,1.008 -3.84,-1.773 -3.87,-1.613 -3.93,2.762 -0.02,2.168 -0.03,4.336 0.97,6.305 0.55,1.07 1.23,2.136 2.7,0.761 2.13,-1.992 5.31,-1.777 7.09,-0.75 3.57,2.059 6.22,0.649 8.9,-1.004 2.19,-1.351 4.25,-2.207 6.91,-2.343 2.62,-0.137 4.24,-2.352 5.12,-4.825 0.19,-0.558 0.17,-1.175 0.76,-1.515 0.96,-0.723 1.92,-1.446 2.88,-2.164 1.68,-1.41 3.36,-0.727 5.04,-0.004 0.72,0 1.45,0 2.17,0 0.74,-0.594 1.48,-1.195 2.23,-1.778 2.51,-1.957 2.63,-2.839 0.84,-5.566 -1.13,-1.715 -2.18,-3.113 -3.76,-0.344 -0.39,0.68 -1.21,1.508 -2.07,0.785 -1.91,-1.617 -4.12,-0.828 -6.2,-1.015 -0.72,-0.067 -1.59,0.223 -2.13,-0.098 -3.18,-1.879 -5.78,-1.812 -8.56,1.098 -2.12,2.223 -5.82,2.91 -6.35,6.707 -0.07,0.437 -0.34,0.945 -0.67,1.226 -1.13,0.957 -1.79,2.852 -3.69,2.411 z m 18.37,678.931 c -0.56,-0.29 -1.04,-0.58 -1.44,-0.88 0.4,0.3 0.88,0.59 1.44,0.88 0.55,0.29 1.19,0.58 1.9,0.88 v 0 c -0.71,-0.3 -1.35,-0.59 -1.9,-0.88 z m 13.78,-293.849 c -0.12,-0.008 -0.24,-0.028 -0.36,-0.047 v 0 c 0.12,0.019 0.24,0.039 0.36,0.047 z m 18.39,9.332 c -0.15,0.425 -0.39,0.742 -0.69,0.992 0.3,-0.25 0.54,-0.567 0.69,-0.992 z m -1,1.226 c -0.22,0.145 -0.45,0.274 -0.69,0.395 0.24,-0.121 0.47,-0.25 0.69,-0.395 z m 8.66,-253.492 c -0.71,-0.031 -1.53,0.004 -1.7,-0.773 0.17,0.777 0.99,0.742 1.7,0.777 0.45,-0.02 0.93,-0.039 1.24,-0.281 -0.31,0.242 -0.79,0.261 -1.24,0.277 z m 23.42,-27.144 c 0.21,0.16 0.41,0.332 0.6,0.511 0.1,0.297 0.18,0.594 0.23,0.891 -0.05,-0.297 -0.13,-0.594 -0.23,-0.891 -0.19,-0.179 -0.39,-0.351 -0.6,-0.511 -0.41,-0.325 -0.85,-0.618 -1.29,-0.903 0.44,0.285 0.88,0.578 1.29,0.903 z m -64.12,-105.864 c 0.09,-0.039 0.16,-0.105 0.2,-0.199 -0.04,0.094 -0.11,0.16 -0.2,0.199 -0.1,0.043 -0.22,0.055 -0.38,0.051 0.16,0.004 0.28,-0.008 0.38,-0.051 z m -31.41,-9.051 c -0.23,-0.66 -0.4,-1.32 -0.42,-1.98 0.02,0.66 0.19,1.32 0.42,1.98 z m 109.15,53.446 c 0,0.222 -0.01,0.437 -0.04,0.636 -0.1,0.805 -0.4,1.426 -0.81,1.93 0.41,-0.504 0.71,-1.125 0.81,-1.93 0.03,-0.199 0.04,-0.414 0.04,-0.636 0.21,-0.117 0.43,-0.242 0.66,-0.348 -0.23,0.106 -0.45,0.231 -0.66,0.348 z m 14.55,-31.535 c -0.06,0.171 -0.11,0.339 -0.16,0.511 0,0.25 0.01,0.504 0.02,0.758 -0.01,-0.254 -0.02,-0.508 -0.02,-0.758 0.05,-0.172 0.1,-0.34 0.16,-0.511 z m -64.62,144.363 c 0.32,0.051 0.63,0.137 0.93,0.266 -0.3,-0.129 -0.61,-0.215 -0.93,-0.266 z m 12.92,-145.367 c 0,0.011 0.01,0.027 0.01,0.039 0.04,-0.004 0.09,0.008 0.14,0.008 -0.05,0 -0.1,-0.032 -0.15,-0.047 z m -34.92,-44.637 c -0.01,0.254 -0.02,0.508 -0.02,0.758 0,-0.25 0.01,-0.504 0.02,-0.758 z m 36.03,46.312 c 0.08,0.024 0.14,0.055 0.2,0.094 0.15,0.055 0.05,-0.058 -0.24,-0.121 0.01,0.012 0.03,0.02 0.04,0.027 z m -0.34,-0.05 c -0.06,-0.004 -0.12,-0.008 -0.19,0 0.07,-0.008 0.13,0 0.2,0 0,0 0,0 -0.01,0 z m 32.54,-3.051 c 0.31,0 0.63,0.023 0.95,0.078 v 0 c -0.32,-0.055 -0.64,-0.078 -0.95,-0.078 z m -74.88,310.059 c 0.79,0.175 1.34,0.632 1.5,1.531 -0.16,-0.903 -0.71,-1.356 -1.5,-1.531 z m -19.31,309.82 c -0.05,0.094 -0.11,0.176 -0.17,0.242 0.06,-0.066 0.12,-0.148 0.17,-0.242 1.44,0.004 2.87,0.004 4.31,0.008 -1.44,-0.004 -2.87,-0.004 -4.31,-0.008 z m -2.09,42.722 c -0.05,0.85 0.67,1.16 1.47,1.21 2.52,0.15 5.01,0.1 7.26,-1.27 0.31,-0.19 0.56,-0.46 0.87,-0.63 5.64,-3.2 5.71,-3.4 3.62,-9.661 -0.15,-0.445 -0.26,-0.906 -0.42,-1.613 -0.01,-0.004 -0.01,-0.004 -0.01,-0.008 -1.61,1.637 -2.81,2.73 -5.05,1.426 -1.17,-0.684 -3.16,-0.266 -4.06,1.129 -0.95,1.472 -1.55,1.816 -2.36,0.058 -0.38,-0.828 -0.96,-1.019 -1.71,-0.687 -0.88,0.386 -1.35,1.246 -1.06,2.054 0.96,2.594 1.61,5.192 1.45,7.992 z m -8.01,-679.105 c 0,0 0,0 0,-0.004 -0.17,-0.824 -0.52,-1.648 -0.84,-2.476 0.32,0.828 0.67,1.652 0.84,2.48 z m 0,4.84 c 0,-0.176 0.01,-0.352 0.01,-0.524 v 0 c 0,0.172 -0.01,0.348 -0.01,0.524 z m 47.25,377.094 c 0.24,-0.02 0.49,-0.036 0.74,-0.036 -0.25,0 -0.5,0.016 -0.74,0.036 z m -1.85,0.105 c 0.25,0.008 0.49,-0.004 0.74,-0.019 -0.25,0.015 -0.49,0.027 -0.74,0.019 z m -16.74,282.152 c 0.51,-0.328 0.9,-0.753 1.23,-1.226 -0.33,0.473 -0.72,0.898 -1.23,1.226 -0.17,0.11 -0.36,0.207 -0.56,0.293 h 0.01 c 0.19,-0.086 0.38,-0.183 0.55,-0.293 z m 78.77,-570.195 c -0.81,-0.355 -1.63,0.555 -1.64,1.262 -0.02,1.019 1.03,0.39 1.59,0.578 -0.17,-0.648 0.74,-1.535 0.05,-1.84 z m -47.57,263.512 v 0 c -0.28,0.262 -0.55,0.523 -0.83,0.789 0.28,-0.266 0.55,-0.527 0.83,-0.789 z M 951.008,251.02 c -0.024,-0.344 -0.02,-0.711 -0.039,-1.063 0.019,0.352 0.015,0.719 0.039,1.063 z m 0.035,0.406 c -0.008,-0.055 -0.012,-0.106 -0.008,-0.153 v 0 c -0.004,0.047 0,0.098 0.008,0.153 z m 0.289,1.371 c 0,-0.039 0,-0.078 -0.004,-0.121 0.004,0.043 0.004,0.082 0.004,0.121 z m 0.004,0.039 c -0.008,0.199 -0.082,0.359 -0.281,0.437 0.199,-0.078 0.273,-0.238 0.281,-0.437 z M 847.887,112.301 c -0.207,0.211 -0.364,0.558 -0.41,1.097 0.043,-0.519 0.191,-0.859 0.41,-1.097 z m -1.699,0.379 c -0.637,1.019 -0.063,1.73 1.765,2.019 0,0.242 0,0.481 0.008,0.711 -0.004,-0.14 -0.004,-0.289 0.348,-0.789 -0.461,-0.09 -0.801,-0.351 -0.825,-0.98 -1.355,0.14 -1.699,-0.27 -1.296,-0.961 z m 0.296,-0.41 c 0.004,-0.008 0.008,-0.008 0.012,-0.008 -0.004,0 -0.008,0 -0.012,0.008 z m -42.976,967.14 c 0.183,0.05 0.379,0.1 0.582,0.12 -0.203,-0.02 -0.399,-0.07 -0.582,-0.12 z m 1.262,0.15 c 0.398,-0.01 0.82,-0.08 1.273,-0.2 -0.453,0.12 -0.879,0.19 -1.273,0.2 z M 727.613,152.172 c 0.086,-0.262 0.133,-0.543 0.149,-0.832 -0.016,0.289 -0.063,0.57 -0.149,0.832 z m -0.98,184.433 c 0.16,0.583 0.879,0.723 1.512,0.778 0.652,-0.008 1.296,-0.094 1.468,-0.735 -0.172,0.641 -0.816,0.727 -1.468,0.731 -0.633,-0.051 -1.352,-0.191 -1.512,-0.774 z M 337.355,988.652 c 0.118,0.133 0.196,0.301 0.243,0.493 -0.047,-0.192 -0.125,-0.36 -0.243,-0.493 z m -0.195,-0.179 c 0.063,0.047 0.121,0.097 0.172,0.156 -0.051,-0.059 -0.109,-0.109 -0.172,-0.156 z m 26.473,71.077 c 0.215,0.43 0.433,0.85 0.648,1.28 -0.215,-0.43 -0.433,-0.85 -0.648,-1.28 -0.723,-0.48 -1.442,-0.96 -2.16,-1.44 0.718,0.48 1.437,0.96 2.16,1.44 z m 4.949,0.91 c 0.684,-0.97 1.387,-1.91 2.465,-3.39 -2.82,-0.46 -4.742,-1.89 -6.945,-2.71 -0.868,-0.32 -1.368,-0.07 -1.864,0.5 -0.843,0.98 0.239,1.15 0.703,1.52 1.293,1.01 1.786,2.52 2.489,3.89 0.968,1.9 1.996,1.81 3.152,0.19 z m 17.406,-909.261 c 0.059,-1.289 -0.527,-2.008 -2.011,-1.91 1.625,0.359 2.035,1 2.011,1.91 z m -9.383,-6.949 c -0.679,-1.281 -1.507,-1.691 -2.453,-1.23 0.711,-0.329 1.192,0.019 1.036,1.25 -0.317,0.031 -0.555,0.082 -0.668,0.179 0.207,-0.09 0.429,-0.14 0.668,-0.168 0,-0.011 0,-0.011 0,-0.011 0.214,-0.02 0.457,-0.032 0.714,-0.04 1.391,-0.019 0.618,0.961 0.649,1.43 0.004,0.078 -0.008,0.141 -0.008,0.211 2.656,1.258 4.605,2.16 4.145,3.098 1.277,0.031 2.253,0.121 3.007,0.261 -2.543,-1.402 -5.32,-2.468 -7.09,-4.98 z m -13.171,864.48 c -0.02,0.15 -0.016,0.26 -0.024,0.39 0.613,0.02 1.203,0.04 1.778,0.01 -0.79,0.02 -1.504,-0.1 -1.754,-0.4 1.195,-0.32 1.98,-0.39 2.562,-0.08 -0.582,-0.31 -1.367,-0.24 -1.742,-0.3 -0.941,0.06 -1.867,-0.12 -2.449,0.22 0.543,-0.31 1.304,-0.06 1.629,0.16 z m 19.914,-855.41 c 0.101,-0.011 0.191,-0.031 0.265,-0.058 -0.074,0.027 -0.164,0.047 -0.265,0.058 z m -0.336,-0.031 c 0.097,0.02 0.183,0.02 0.265,0.02 -0.082,0 -0.168,0 -0.265,-0.02 z m -4.457,-5.301 c -0.075,-0.058 -0.176,-0.09 -0.219,-0.066 0.082,0.008 0.164,0.019 0.219,0.066 z m 3.957,863.142 c 0.121,-0.3 0.207,-0.59 0.254,-0.86 -0.047,0.27 -0.133,0.56 -0.254,0.86 z m -1.418,2.4 c 0.035,-0.04 0.07,-0.08 0.101,-0.12 -0.031,0.04 -0.066,0.08 -0.101,0.12 z m -1.824,1.33 c -1.122,0.03 -2.024,-0.22 -2.411,-1.07 0.387,0.85 1.289,1.1 2.411,1.07 0.457,-0.02 1.027,-0.43 1.57,-1.03 -0.543,0.6 -1.113,1.01 -1.57,1.03 z m 1.972,-1.52 c 0.094,-0.11 0.184,-0.23 0.27,-0.36 -0.086,0.13 -0.176,0.25 -0.27,0.36 z m 0.793,-1.2 c 0.016,-0.03 0.031,-0.06 0.047,-0.09 -0.016,0.03 -0.031,0.06 -0.047,0.09 z m 0.981,47.7 c -0.711,-1.12 -0.676,-2.16 -0.438,-3.39 0.125,-0.65 2.203,-0.07 0.824,-1.41 -0.984,-0.97 -2.144,-1.53 -3.558,-1.18 -1.11,0.27 -1.559,1.11 -1.324,2.15 0.246,1.07 0.293,2.12 0.183,3.19 -0.094,0.92 -0.625,1.53 -1.558,1.7 -1.082,0.2 -1.911,-0.04 -1.969,-1.36 -0.692,-0.41 -1.379,-0.84 -2.332,-1.42 0.066,1.25 0.136,2.24 0.164,3.23 0.051,1.9 1.383,2.69 2.844,2.32 1.902,-0.49 3.769,-0.37 5.652,-0.54 2.437,-0.22 2.875,-1.16 1.512,-3.29 z m 24.968,-951.699 v 0 c 0.657,-0.141 1.039,-0.5 0.907,-1.211 0.132,0.711 -0.25,1.07 -0.907,1.211 z m 65.196,996.819 v 0 c 0.062,0.11 0.133,0.2 0.211,0.28 -0.078,-0.08 -0.149,-0.17 -0.211,-0.28 z m 16.578,-30.27 c 0.523,-1.35 1.644,-1.51 2.879,-1.45 0.718,-0.96 1.437,-1.92 2.156,-2.89 -0.004,-0.7 -0.008,-1.41 -0.012,-2.12 -0.683,-0.11 -1.375,-0.18 -2.043,-0.35 -3.617,-0.9 -4.691,-0.51 -6.593,2.47 -0.883,0.51 -0.665,1.39 -0.711,2.17 0.156,1.52 -0.286,3.11 0.257,4.68 1.715,-0.73 2.282,-2.59 4.067,-2.51 z m 27.836,-948.678 c -0.031,-0.051 -0.059,-0.09 -0.094,-0.133 0.035,0.043 0.063,0.082 0.094,0.133 z m -0.582,2.25 c 0.679,-0.114 0.828,-0.703 0.828,-1.391 -0.016,-0.32 -0.078,-0.59 -0.199,-0.801 0.117,0.211 0.179,0.481 0.195,0.801 0.004,0.688 -0.145,1.277 -0.824,1.391 z m -25.742,49.636 c 0.109,-0.058 0.199,-0.128 0.277,-0.218 -0.078,0.09 -0.168,0.16 -0.277,0.218 z m -40.133,901.042 c -2.922,-3.6 -6.004,-4.76 -10.164,-2.39 -1.618,0.92 -3.743,0.19 -5.633,0.31 -0.969,0.05 -2.078,0.07 -2.184,1.29 -0.093,1.05 1.028,1.26 1.75,1.44 1.391,0.33 2.348,1.06 2.957,2.31 2.367,2.01 5,2.56 7.93,1.43 1.25,-2.02 2.383,-4.17 5.344,-4.39 z m 14.078,-903.389 c 0.695,-0.461 0.769,-1.442 0.762,-2.379 0,-0.84 0,-1.731 -0.668,-2.051 0.668,0.32 0.668,1.211 0.664,2.051 0.011,0.937 -0.063,1.918 -0.758,2.379 z m 188.246,150.34 c 0.094,-0.313 0.34,-0.524 0.75,-0.567 v 0 c -0.41,0.043 -0.656,0.254 -0.75,0.567 z m 10.32,760.269 c 0.012,-0.02 0.024,-0.03 0.035,-0.05 -0.011,0.02 -0.023,0.03 -0.035,0.05 z m 5.551,-678.683 c -0.266,0.25 -0.641,0.418 -1.203,0.429 0.562,-0.011 0.937,-0.179 1.203,-0.429 z m -349.184,275.39 c -0.226,-0.125 -0.511,-0.187 -0.808,-0.219 0.297,0.032 0.582,0.094 0.808,0.219 z M 727.754,150.809 c 0.012,0.16 0.019,0.32 0.012,0.48 0.007,-0.16 0,-0.32 -0.012,-0.48 z m 178.129,103.933 c 0.277,0.485 0.988,0.457 1.594,0.496 0.207,-0.004 0.429,-0.008 0.644,-0.023 -0.215,0.015 -0.437,0.019 -0.644,0.023 -0.606,-0.039 -1.317,-0.011 -1.594,-0.496 z M 1073.12,113.441 c 0.16,-0.363 0.29,-0.742 0.38,-1.14 -0.09,0.398 -0.22,0.777 -0.38,1.14 z m -5.28,3.418 c -1.02,-0.07 -2.2,0.25 -2.98,-0.507 0.78,0.757 1.96,0.437 2.98,0.507 2.4,-0.097 4.3,-1.398 5.21,-3.269 -0.91,1.871 -2.81,3.16 -5.21,3.269 z M 798.77,1105.59 c -1.36,0.27 -2.735,0.86 -4.129,1.58 0,0.94 0.004,1.87 0.004,2.8 v 0 c 0,-0.93 -0.004,-1.86 -0.004,-2.8 1.394,-0.72 2.769,-1.31 4.129,-1.58 z M 89.1719,455.82 c 1.6211,0.27 3.2578,0.457 4.914,0.5 0.0039,0.239 0.0039,0.477 0.0039,0.715 v 0 c 0,-0.238 0,-0.476 -0.0039,-0.715 -1.6562,-0.043 -3.2929,-0.23 -4.914,-0.5 z M 78.9531,345.328 c 0.0078,-0.012 0.0196,-0.023 0.0196,-0.023 v 0 z m 38.9139,2.891 c -0.527,-0.192 -1.058,-0.336 -1.594,-0.449 0.536,0.113 1.067,0.257 1.594,0.449 z M 105.508,230.055 c 0.027,0.254 0.015,0.511 -0.067,0.726 0.082,-0.215 0.094,-0.472 0.067,-0.726 -0.031,-0.625 -1.125,-2.196 -2.356,-3.61 1.231,1.414 2.325,2.985 2.356,3.61 z M 933.555,105.969 c 0.008,0 0.015,0 0.019,0 -0.008,0 -0.011,0 -0.019,0 z m 0.84,-5.258 c -0.036,-0.02 -0.075,-0.031 -0.114,-0.039 0.039,0.008 0.078,0.019 0.114,0.039 z m -0.25,-0.09 c -0.137,-0.031 -0.286,-0.051 -0.446,-0.051 0.156,0 0.305,0.02 0.446,0.051 z m -3.317,4 c 0.527,1.168 1.395,1.508 2.402,1.399 -0.753,0.062 -1.132,-0.27 -0.218,-1.43 0.625,-0.012 1.121,-0.012 1.242,-0.121 -0.402,0.07 -0.816,0.09 -1.234,0.109 -0.004,0 -0.004,0 -0.008,0.012 -0.176,0 -0.364,0.012 -0.551,0.019 -0.188,0.012 -0.367,0.02 -0.551,0.039 -1.469,0.161 -1.066,-0.757 -1.058,-1.468 0,-0.121 0.023,-0.231 0.039,-0.34 -1.438,-0.969 -0.387,-1.988 0.757,-2.828 -1.566,1.148 -2.988,2.636 -0.82,4.609 z M 1142.74,337.41 c -1.96,1.641 0.09,2.469 0.72,3.586 1.05,-0.125 1.97,0.234 2.86,0.727 1.19,0.703 2.91,0.933 2.84,2.828 -0.07,1.969 -1.81,1.937 -3.11,2.383 -1.9,0.656 -3.06,2.242 -4.5,3.496 -1.32,1.144 -1.7,2.043 -0.14,3.39 1.74,1.5 2.42,3.332 1.55,5.793 -0.57,1.606 -0.44,3.383 0.65,5.129 2.71,4.344 -0.77,12.059 -5.91,12.926 -2.62,0.441 -4.02,1.879 -5.01,3.988 -0.37,0.797 -0.66,1.516 -1.5,1.875 -0.07,0.821 0.43,1.453 0.72,2.157 1.64,0.792 2.45,2.246 2.85,3.902 0.4,1.664 1.35,2.723 2.91,3.305 2.56,1.574 2.68,2.281 0.73,4.324 -0.24,0.242 -0.48,0.48 -0.73,0.722 -1.05,2.688 -3.36,0.938 -5.04,1.438 -0.72,0.004 -1.44,0.008 -2.16,0.012 -0.72,-0.004 -1.44,-0.004 -2.16,-0.008 0.72,0.004 1.44,0.004 2.16,0.008 -0.15,0.922 -2.19,1.632 -0.1,2.808 2.93,1.656 3.07,3.121 0.67,5.285 -1.55,1.395 -3.68,2.227 -3.91,4.758 -0.04,0.512 -0.98,1.028 -1.47,0.711 -2.16,-1.41 -4.18,-0.566 -6.28,0.09 -0.66,0.203 -1.44,0.059 -1.88,-0.688 -0.71,-0.429 -0.67,-1.14 -0.74,-1.839 -0.44,-4.547 -1.3,-5.125 -5.74,-3.922 -0.27,0.812 -1.25,1.746 0.44,2.183 1.25,0.325 2.43,1.196 2.3,2.403 -0.35,3.179 1.53,3.191 3.85,3.547 3.88,0.597 5.06,1.714 4.87,4.421 -0.23,3.223 0.79,5.743 2.93,8.055 1.25,1.34 1.78,2.723 0.52,4.766 -1.06,1.719 -2.28,3.125 -3.5,4.64 -1.02,1.274 0.65,3.793 -0.16,5.766 -0.13,0.328 -0.3,0.648 -0.45,0.973 0.02,1.382 -0.28,2.894 1.44,3.605 0.86,1.129 2.1,2.031 2.14,3.641 0.25,0.465 0.5,0.929 0.75,1.394 0,0.485 0,0.965 0,1.45 0,-0.485 0,-0.965 0,-1.45 0.47,0.086 1,0.106 1.23,0.614 1.62,3.73 0.12,6.238 -4.52,7.281 -1.08,0.238 -1.9,0.519 -2.02,1.613 -0.13,1.164 0.92,1.231 1.71,1.387 2.96,0.582 3.59,2.68 3.61,5.285 0.02,2.055 -0.36,4.184 -0.98,5.957 -0.76,2.191 -1.53,5.047 -4.27,5.836 -1.42,0.406 -1.88,0.898 -2.05,2.332 -0.24,2.113 -1.63,3.52 -3.83,3.523 -1.9,0.004 -3.06,0.727 -4.11,2.293 -1.94,2.871 -3.44,2.86 -5.87,0.289 -1.07,-1.125 -2.08,-1.937 -2.69,0.352 -0.22,1.418 -1.21,2.91 1.03,3.832 1.47,0.606 1.51,2.395 1.71,3.719 0.17,1.172 -0.65,2.191 -1.83,2.804 -1.17,0.606 -1.73,-0.035 -2.34,-0.863 -1.34,-1.832 -3.29,-1.824 -5.17,-1.379 -1.16,0.274 -2.29,0.578 -3.48,0.543 -0.23,1.832 0.87,1.946 2.35,2.25 3.07,0.641 4.01,4.02 1.97,6.399 -0.51,1.828 -0.9,3.957 -3.28,4.019 -1.96,0.051 -3.87,-2.804 -3.93,-5.367 -0.02,-0.82 -0.16,-1.711 0.71,-2.269 -0.34,-0.684 1.32,-2.02 -0.71,-2.149 -1.26,1.828 -2.67,2.199 -4.27,0.41 -0.21,-0.234 -0.36,-0.918 -0.64,-0.59 -2.2,2.629 -3.93,-0.101 -5.85,-0.457 -2.51,-0.468 -3.62,0.286 -3.62,2.918 0,2.453 -1.04,4.887 -0.08,7.371 0.25,0.641 0.09,1.579 -0.54,1.985 -2.55,1.644 -2.16,4.308 -2.55,6.734 -0.13,0.801 -0.8,1.664 0.12,2.262 0.73,0.473 1.67,0.367 2.35,-0.258 1.37,-1.262 2.51,-0.961 3.71,0.285 1.65,1.723 2.93,0.625 4.22,-0.64 2.18,-2.157 4.38,-3.661 7.84,-4.172 3.03,-0.446 6.78,-2.117 7.96,-6.032 0.22,-0.73 0.44,-1.531 1.21,-1.585 1.04,-0.071 0.96,0.89 0.93,1.57 -0.05,1.223 0.66,1.992 1.41,2.789 0.94,1.004 0.72,2.043 0.35,3.309 -1.4,4.773 -2.18,9.5 -0.35,14.492 1.29,3.515 2.43,7.359 0.9,11.144 -2.1,5.176 -2.64,10.508 -2.31,16.016 0.13,2.148 0.02,4.316 0.02,6.476 -0.01,0.829 0.12,1.704 -0.72,2.278 0.36,4.976 -1.39,9.316 -4.14,13.312 -1.68,2.434 -2.51,4.817 -0.68,7.586 0.91,1.375 1.04,3.383 0.2,4.453 -1.56,1.989 -2.31,4.274 -3.48,6.391 -1.52,2.769 -1.59,2.883 1.53,3.574 4.38,0.965 5.81,2.547 5.03,6.524 -0.63,3.187 -0.12,6.726 -2.8,9.382 4.11,1.219 6.29,3.692 5.54,6.7 -1.17,4.699 -2.74,9.293 -4.12,13.937 -0.32,1.063 -0.99,1.582 -2.09,1.613 -0.93,0.024 -1.7,-0.328 -2.02,-1.195 -1.27,-3.437 -3.76,-6.043 -5.97,-8.836 -1.79,-0.308 -3.01,0.848 -4.04,1.914 -1.52,1.578 -3.29,2.43 -5.42,2.746 5.59,0.66 5.56,0.672 7.32,6.024 0.16,0.488 0.7,0.914 0.72,1.543 0.71,1.086 0.25,2.058 -0.44,2.871 -0.73,0.859 -1.1,1.765 -0.99,2.875 0.46,0.265 0.92,0.527 1.37,0.789 2.27,0.305 3.59,1.871 4.25,3.773 0.62,1.797 -1.07,2.59 -2.23,3.625 -1.58,1.407 -1.77,5.946 -0.19,7.762 2,2.32 2.6,4.945 2.56,7.852 1.11,1.742 1.08,3.773 1.41,5.703 0.21,1.226 -0.06,2.386 -1.42,2.941 v 0.004 c -0.89,1.344 -1.76,2.715 -3.58,2.895 -2.84,4.125 -7.16,4.293 -11.54,4.324 -0.52,2.621 -3.8,0.836 -4.77,3.148 1.16,0.75 2.49,0.336 3.72,0.442 1.54,0.129 3.16,-0.356 4.61,0.379 3.25,1.64 5.91,1.328 7.75,-2.114 0.48,-0.898 1.53,-1.437 1.82,-0.379 0.7,2.547 1.94,0.903 3.08,0.735 1.2,-0.176 2.53,-0.211 3.05,1.207 0.39,1.082 0.37,2.207 -1.25,2.332 -0.48,0.004 -0.96,0.008 -1.44,0.012 -0.07,4.023 -1.45,6.07 -4.23,5.691 -3.75,-0.52 -7.83,0.859 -11.24,-1.828 -0.26,-0.207 -0.66,0.012 -0.87,0.472 0.17,1.258 1.33,1.848 2.13,2.672 0.95,0.977 1.54,2.141 2.07,3.344 1.47,3.371 0.84,5.117 -2.49,6.688 -1.72,0.808 -2.81,1.796 -1.94,3.847 0.48,0 0.95,0 1.43,0.004 0.31,-2.23 1.74,-2.887 3.81,-2.902 2.39,-0.024 4.31,1.117 6.28,2.183 2.26,1.176 3.58,3.274 2.71,5.493 -1.22,3.101 -1.09,5.988 -0.6,9.125 0.72,4.609 -1.31,6.816 -6.05,7.003 -0.84,0.036 -1.68,0.02 -2.52,0.028 -0.09,1.43 -0.91,2.078 -2.29,2.16 -1.24,0.07 -1.78,0.785 -2.06,2 -0.93,3.988 -1.5,4.383 -5.74,4.484 0.49,1.176 1.45,1.536 2.61,1.407 1.38,-0.153 2.58,0.437 3.81,0.836 1.19,0.382 2.05,1.23 2.17,2.57 0.12,1.449 -0.81,1.914 -2,2.508 -1.56,0.769 -3.42,1.16 -4.59,2.566 -1.21,1.453 -2.72,1.707 -4.48,1.656 -2.97,-0.086 -5.96,-0.082 -8.94,-0.004 -2.08,0.055 -3.19,-0.718 -3.02,-2.914 -0.01,-1.304 -0.98,-1.285 -1.92,-1.531 -1.45,-0.383 -3.03,-0.797 -3.14,-2.777 -3.09,-0.184 -6.14,1.636 -6.39,4.133 -0.25,2.464 -0.91,5.05 0.63,7.398 0.66,1.121 1.78,2.059 1.46,3.586 1.04,0.066 1.61,0.57 1.28,1.633 -0.57,1.797 -2.19,1.828 -3.86,2.039 2,0.785 3.12,2.586 4.98,3.312 2.09,0.817 2.92,2.364 2.64,4.551 v 0.004 c 2.93,1.027 5.52,0.559 7.71,-1.727 0.16,-0.168 0.37,-0.304 0.57,-0.425 3.26,-1.875 6.35,-0.981 8.03,2.32 1.47,2.879 1.12,3.828 -2.59,7.059 -0.04,1.05 0.46,1.746 1.41,2.144 2.29,2.582 2.77,5.285 1.23,8.551 -1.16,2.445 -2.18,5.051 -1.96,7.922 0.15,2.035 -0.13,3.965 -1,5.926 -1.34,3.023 -0.78,4.273 1.91,6.304 0.47,0.36 0.91,0.793 1.27,1.262 0.98,1.277 1.15,2.734 0.1,3.941 -0.92,1.047 -2.1,0.953 -3.1,-0.172 -0.55,-0.625 -1.3,-0.738 -1.84,-0.046 -0.42,0.523 -1.03,1.207 -0.55,1.921 0.48,0.704 1.36,0.887 2.18,1.129 4.54,1.34 5.36,2.446 5.37,7.008 0,1.442 -0.16,2.903 0.03,4.317 0.39,2.879 -0.46,5.117 -2.92,6.707 -0.47,1.207 -1.7,2.312 -1.35,3.609 0.74,2.699 1.28,5.156 -1.79,6.801 -0.17,0.09 -0.18,0.64 -0.13,0.957 0.58,3.844 1.28,7.687 4.85,10.043 1.87,1.234 2.65,2.617 1.55,4.746 -0.27,0.519 -0.58,1.113 -0.57,1.672 0.07,6.097 0.21,12.195 0.33,18.293 0.17,1.316 -0.45,2.258 -1.32,3.179 -1.14,1.207 -1.29,2.504 0.11,3.711 4.7,-4.422 6.36,-4.312 8.49,0.465 0.66,1.481 1.32,3.149 -0.1,4.297 -1.45,1.18 -3.05,0.922 -4.35,-0.754 -0.97,-1.262 -1.73,-0.933 -2.11,0.633 -0.84,3.508 -2.2,3.879 -5.05,1.445 -0.67,0.055 -1.7,-0.164 -1.85,0.582 -0.34,1.731 -0.99,3.078 -2.18,4.496 -0.97,1.164 -0.5,3.012 1.87,2.852 1.98,0.273 3.97,0.477 5.77,1.434 0.9,1.367 2.51,1.683 3.78,2.492 1.15,0.734 2.94,0.761 2.66,2.746 -0.28,1.984 -1.62,2.777 -3.55,2.711 -1.43,1.984 -2.31,1.984 -4.33,-0.02 -0.01,-0.23 -0.02,-0.465 -0.02,-0.699 -1.41,0.023 -2.09,0.77 -2.15,2.145 0.49,1.203 1.43,2.402 0,3.601 -3.02,0.383 -2.41,3.356 -3.6,5.047 -0.7,1.723 -2.22,1.422 -3.6,1.441 -0.29,1.739 0.86,3.887 -1.45,5.043 -1.49,1.121 -3.53,0.329 -5.02,1.457 0.02,1.063 -0.1,2.102 0.57,3.102 1.46,2.195 1.17,4.551 0.18,6.809 -1.01,2.308 -1.4,3.992 1.93,4.683 1.82,0.379 3.45,4.313 3,6.02 -0.64,2.371 -2.61,1.687 -4.16,1.687 -2.13,0.004 -3.15,0.988 -3.86,2.965 -0.83,2.32 -1.71,5.238 -4.51,5.539 -3.11,0.34 -2.85,2.082 -2.33,3.934 0.74,2.629 -0.73,3.148 -2.72,3.433 -1.38,0.203 -2.9,-0.414 -4.34,0.797 3.46,-0.668 4.28,1.746 5.31,3.969 0.34,0.75 1.06,1.359 1.28,2.125 0.35,1.187 0.84,1.375 2.03,1.117 3.28,-0.695 6.06,0.352 8.32,2.813 2.68,-0.106 5.33,2.132 8.07,0.074 0.22,-0.164 0.96,0.121 1.3,0.402 1.62,1.371 3.31,1.223 4.99,0.25 1.79,-1.031 3.72,-0.691 5.62,-0.703 1.88,-0.012 2.76,1.16 2.22,2.809 -0.61,1.832 0.03,2.261 1.56,3.16 1.69,0.992 3.97,2.801 3.34,4.941 -0.96,3.254 -1.18,7.173 -5.47,8.953 3.03,0.43 3.03,0.43 5.76,3.18 0.35,0.07 0.74,0.05 1.04,0.21 2.23,1.2 2.71,4.38 5.64,4.9 0.6,0.1 0.5,1.2 0.23,1.93 -0.6,1.67 -1.66,2.5 -3.52,2.35 -1.52,-0.1 -3.17,0.38 -2.78,2.22 0.68,3.15 -1.36,2.25 -2.51,1.69 -1.38,-0.66 -2.54,-1.48 -4.48,-0.56 2.02,1.46 2.26,3.3 2.06,5.27 1.93,0.25 3.78,1.13 3.93,3.08 0.22,2.91 -1,5.8 -0.64,8.8 0.07,0.52 -0.82,0.74 -1.3,1.08 -1.9,1.37 -4.28,1.26 -6.32,2.18 -0.93,1.6 -1.21,3.98 -3.02,4.56 -2.31,0.76 -0.44,1.79 -0.58,2.65 0.37,1.16 1.6,1.34 2.37,2.05 1.52,1.4 1.96,5.53 0.41,6.04 -3.58,1.17 -2.43,3.97 -2.77,6.31 0.24,0.01 0.47,0.01 0.71,0.02 2.01,1.16 4.53,0 6.49,1.42 0.24,0 0.48,0.01 0.71,0.01 2.32,0.79 1.66,2.17 0.73,3.61 -0.47,1.41 -1.84,1.4 -2.91,1.81 -3.8,1.43 -6.33,4.01 -8.52,7.5 -1.84,2.93 -2.27,6.2 -3.71,9.16 -0.71,1.47 -1.58,2.78 -3.23,3.07 -5.54,0.93 -9.64,-2.72 -9.75,-8.57 v 0 c -1.55,0.07 -2.8,-0.26 -2.88,-2.16 0,-0.47 -0.01,-0.94 -0.01,-1.42 -2.2,-0.71 -4.34,-1.33 -6.36,0.59 -0.55,0.52 -1.54,0.55 -2.33,0.82 -3.28,1.14 -6.55,1.26 -10.05,0.82 -5.71,-0.7 -11.24,1.76 -17.04,1.56 -1.94,-0.06 -4.05,1.09 -6.14,1.54 -1.17,0.26 -2.997,0.7 -3.516,2.14 -1,2.79 -3.406,3.84 -5.766,4.28 -3.558,0.66 -7.148,1.27 -10.726,1.78 -2.735,0.4 -5.453,0.26 -7.625,2.31 -0.989,0.93 -2.235,0.7 -3.414,0.71 -3.715,0.01 -7.43,-0.03 -11.145,0.04 -0.648,0.01 -1.398,-0.46 -1.933,0.84 -1.375,3.38 -6.184,5.31 -9.661,4.31 -1.562,-0.46 -3.004,-1.06 -4.843,-0.45 -2.774,0.93 -3.543,0.23 -3.926,-2.72 -0.129,-1.01 -0.125,-1.94 -1.453,-2.02 -0.84,0.01 -1.649,-0.03 -2.379,-0.58 -2.028,-1.53 -4.293,-1.26 -5.973,0.2 -2.426,2.11 -6.41,2.27 -7.543,6.06 -0.179,0.61 -1.269,1.08 -2.035,1.36 -2.484,0.92 -4.156,-0.1 -4.379,-2.77 -0.137,-1.71 -0.355,-2.81 -2.508,-2.18 -1.687,0.5 -3.355,-0.36 -4.867,-0.88 -2.019,-0.69 -3.941,-0.64 -5.515,0.37 -3.344,2.13 -5.637,0.26 -8.067,-1.56 -3.84,0.25 -5.18,2.13 -3.582,5.03 1.527,0.01 3.078,-0.12 4.582,0.08 3.078,0.4 4.211,2.18 3.348,4.97 -0.246,1.02 -0.52,2.04 -0.731,3.07 -0.172,0.86 -0.414,1.8 -1.441,1.66 -0.895,-0.11 -1.457,-1.25 -1.219,-1.87 0.527,-1.36 -0.613,-1.93 -0.937,-2.86 -0.481,0 -0.961,0 -1.438,0 -0.07,0.88 -1.738,1.26 -0.781,2.43 0.832,1.01 0.113,1.36 -0.617,1.9 -2.446,1.79 -3.321,1.67 -4.293,-1.24 -0.602,-1.79 -1.43,-2.22 -2.715,-1.04 -2.469,2.27 -2.395,2.35 -3.391,-1.09 -0.097,-0.34 -0.304,-0.64 -0.461,-0.96 -9.191,0.75 -18.195,-2.1 -27.382,-1.45 -2.172,0.29 -4.301,-0.14 -6.583,0.8 -1.601,0.66 -3.984,-0.62 -6.082,-0.6 -0.097,0 -0.207,-1.07 -0.308,-1.64 v 0 c -1.758,0 -3.512,0 -5.266,0 -4.101,0 -4.101,0 -2.656,3.6 v 0 c 0.609,0.35 1.387,0.63 0.883,1.58 -0.996,1.89 -2.719,2.69 -4.703,2.71 -3.625,0.04 -7.11,-0.9 -10.328,-2.46 -1.606,-0.78 -3.551,-1.69 -3.247,-4.21 0.106,-0.87 -0.691,-1.28 -1.468,-1.17 -2.457,0.33 -4.903,-0.91 -7.219,2.09 -1.824,2.36 -2,2.36 0.687,3.02 1.7,0.42 2.809,1.74 2.125,3.52 -1.195,3.11 -4.679,3.39 -7.007,0.69 -1.438,0 -2.875,0.05 -4.313,-0.01 -1.758,-0.07 -2.312,0.64 -2.031,2.4 0.629,3.98 -0.914,5.9 -4.516,4.63 -3.254,-1.13 -6.25,-0.63 -9.379,-0.52 -3.562,0.12 -7.101,0.02 -10.699,0.54 -3.723,0.53 -7.656,0.65 -11.422,-0.18 -2.261,-0.51 -4.234,-0.69 -5.832,1.32 -0.578,0.73 -1.265,1 -2.195,0.57 -1.707,-0.8 -3.754,-0.59 -5.305,-1.93 -0.863,-0.75 -1.73,-0.53 -2.89,-0.05 -2.262,0.92 -4.606,1.37 -7.262,0.62 -3.024,-0.85 -6.203,-1.44 -9.516,-0.53 -1.242,0.34 -3.136,-0.07 -3.922,-1.81 -1.816,-1.18 -4.336,-0.94 -5.761,-2.89 -0.715,0 -1.547,0.22 -2.129,-0.06 -4.524,-2.19 -8.922,-1.03 -13.531,-0.13 -2.883,0.57 -6.594,1.45 -9.016,-0.59 -4.192,-3.53 -9.524,-0.63 -13.598,-3.6 1.703,4.84 0.985,5.33 -2.816,6.54 -0.953,0.01 -1.91,0.03 -2.867,0.05 -2.063,0.78 -3.696,-1.69 -5.778,-0.77 -1.019,-0.35 -1.59,-1.58 -2.851,-1.46 -0.719,0.01 -1.66,0.21 -2.047,-0.39 -0.953,-1.48 -2.063,-1.61 -3.621,-1.1 -0.871,0.28 -1.957,0.26 -2.856,0.03 -5.367,-1.38 -10.703,0.4 -15.308,2 -5.582,1.95 -9.992,-0.84 -14.938,-0.91 -0.304,-0.01 -0.597,-0.68 -0.894,-1.05 -1.567,-0.79 -3.305,-1.37 -4.637,0.07 -1.457,1.58 -2.875,1.3 -4.496,0.62 -1.223,-0.51 -2.481,-0.83 -3.824,-0.68 -2.953,1.42 -6.11,1.52 -9.293,1.42 -1.047,-0.03 -1.621,-0.56 -2.207,-1.47 -2.364,-3.63 -5.844,-5.43 -10.137,-5.73 -1.469,0.18 -2.152,-1.61 -3.617,-1.45 -1.125,0.64 -2.039,1.78 -3.551,1.48 -1.133,2.13 -3.77,1.18 -5.266,2.57 -0.457,0.43 -1.308,0.06 -1.535,1.12 -0.863,4.07 -1.883,4.38 -5.762,2.35 -2.191,-1.15 -4.433,-1.81 -7.121,-1.19 -2.976,0.68 -6.117,0.62 -9.187,0.89 -0.742,1.75 -2.305,1.49 -3.707,1.42 -1.692,-0.07 -2.891,0.32 -3.86,1.94 -0.82,1.37 -1.914,2.84 -3.769,3.1 -4.66,0.64 -9.012,2.52 -13.941,2.41 -3.883,-0.09 -7.489,0.27 -10.309,-2.83 -1.805,0.95 -1.43,3.79 -3.57,3.94 -2.985,0.21 -6.262,0.78 -8.914,-0.18 -2.364,-0.86 -3.668,-0.29 -5.364,0.78 -2.672,1.67 -4.73,1.36 -6.703,-1.09 -1.023,-1.28 -2.238,-1.6 -3.777,-1.58 -3.84,0.06 -7.688,-0.08 -11.524,0.07 -1.324,0.05 -2.609,-1.14 -3.8,-0.29 -1.629,1.17 -3.137,1.45 -4.379,-0.25 -1.145,-1.58 -1.055,-3.33 0.078,-5.01 0.562,-0.83 1.562,-1.68 0.566,-2.83 -1.101,-1.29 -2.519,-1.31 -3.937,-0.73 -0.86,0.35 -1.489,1.2 -2.575,1.11 -3.839,-0.33 -7.679,-0.42 -11.527,-0.01 -1.156,0.12 -2.316,-0.03 -3.519,-0.39 -4.032,-1.19 -8.09,-2.42 -12.227,-3.06 -1.922,-0.29 -3.871,-1.46 -6.09,-0.56 0.715,1.67 3.317,3.24 0.703,5.17 -1.601,1.18 -4.906,0.14 -6.023,-1.6 -1.984,-3.09 1.289,-3.31 2.605,-4.51 -0.574,-1 -1.738,-1.2 -2,-2.22 -0.238,-0.01 -0.476,-0.02 -0.711,-0.02 -3.957,0.67 -6.668,-2.32 -9.621,-3.9 -2.16,-1.15 -4.558,-3.78 -4.269,-7.61 -1.606,1.64 -3.219,1.29 -4.746,1.47 -4.375,0.5 -8.731,-1.42 -13.094,-0.05 -2.602,1.64 -5.246,1.77 -8.016,0.36 -1.316,-0.66 -2.808,-0.27 -4.222,-0.35 -3.993,-0.66 -8.145,0.55 -12.075,-1.22 -1.375,-0.62 -2.453,-0.28 -2.066,1.91 0.691,3.91 -0.48,4.98 -4.492,5.11 -2.309,0.08 -4.777,-0.74 -6.86,1.09 -0.578,0.51 -1.367,0.31 -1.972,-0.19 -2.813,-2.28 -6.137,-3.92 -8.59,-6.68 -2.734,0.16 -5.273,-0.75 -7.898,-1.24 -3.29,-0.62 -5.977,-1.71 -8.45,-3.86 -2.043,-1.79 -4.445,-1.87 -7.281,-0.69 1.109,1.06 2.102,1.88 2.492,3.13 0.371,1.19 0.102,1.86 -1.226,1.9 -0.707,0.48 -1.418,0.97 -2.129,1.46 -0.332,2.16 -2.063,3.16 -3.602,4.32 -0.687,0.28 -1.172,0.76 -1.445,1.45 -1.777,1.41 -3.981,-0.64 -5.762,0.71 -1.676,0.09 -3.32,0.22 -4.332,-1.64 -0.336,-0.61 -1.027,-0.39 -1.441,0.21 -2.403,1.14 -4.801,1.13 -7.207,0 -1.071,-0.84 -1.438,-2.39 -2.864,-2.88 -1.562,2.25 -3.449,1.95 -5.05,0.28 -1.965,-2.05 -3.938,-3.69 -7.02,-3.25 -0.5,0.07 -1.082,-0.42 -1.629,-0.64 -0.75,0.31 -1.48,0.91 -2.316,0.69 -2.582,-0.67 -3.391,1.08 -4.18,2.91 v 0 c -0.523,1.36 -1.644,1.52 -2.883,1.45 -1.199,0 -2.398,0 -3.593,0 -5.586,-0.3 -11.231,0.72 -16.758,-0.75 -3.52,-0.93 -6.981,-0.7 -10.586,-0.23 -2.586,0.34 -5.692,1.56 -7.977,-1.18 -3.883,-2.99 -17.011,-3.18 -19.519,-0.29 -0.922,-2.01 -4.586,-2.7 -6.692,-1.18 -1.437,1.04 -2.406,3.3 -4.73,1.25 -2.207,-1.94 -3.133,2.48 -5.305,1.21 -0.832,-0.48 -1.988,-0.03 -2.707,-0.77 -0.883,-0.92 -2.191,-0.88 -3.168,-1.6 -1.609,-1.19 -3.383,-1.18 -4.996,-0.09 -1.41,0.96 -2.523,0.22 -3.922,0.02 -3.601,-0.53 -7.156,-3.1 -10.957,-0.73 -1.41,0.06 -2.656,-0.29 -3.594,-1.43 -0.75,0 -1.363,-0.29 -1.894,-0.82 -2.039,-2.04 -4.379,-3.07 -7.305,-3.8 -3.25,-0.79 -7.004,-1.2 -9.539,-4.02 -0.719,-0.48 -1.437,-0.97 -2.156,-1.45 -1.082,-0.38 -0.317,-1.74 -1.152,-2.28 -1.774,2.37 -3.461,2.72 -3.512,1.16 -0.086,-2.5 -2.102,-3.92 -2.539,-6.09 v 0 c -2.356,-0.74 -4.957,-0.22 -7.219,-1.43 -2.242,-1.15 -4.234,-1.86 -6.609,0.26 -1.473,1.31 -3.602,-0.29 -3.539,-2.42 0.058,-2.22 -0.582,-3.26 -3.106,-3.73 -4.73,-0.89 -9.398,-2.35 -11.98,-7.08 -0.922,0.02 -1.555,-0.51 -2.172,-1.11 -0.981,-0.96 -2.051,-2.08 -1.067,-3.4 0.903,-1.2 2.184,-0.29 3.266,0.18 5.844,2.54 11.617,5.25 17.562,7.53 2.141,0.81 4.481,1.46 6.68,2.13 2.754,0.85 4.348,0.81 5.731,-1.66 0.035,-0.07 0.226,-0.06 0.347,-0.06 2.684,0.13 5.555,-0.76 7.867,1.42 0.965,0.01 1.438,-0.48 1.442,-1.44 0,-0.24 0,-0.48 0,-0.72 0.273,-2.11 1.574,-2.95 3.598,-2.88 0.238,-0.25 0.476,-0.48 0.714,-0.72 -0.117,-0.83 1.11,-2.24 -1,-2.2 -0.925,0.02 -1.515,-0.58 -1.875,-1.4 -0.82,-0.76 -1.507,-1.78 -2.875,-1.44 -1.605,0.71 -3.074,1.63 -4.332,2.88 -1.238,0.08 -2.351,-0.1 -2.882,-1.44 -1.215,-1.16 -3.168,-0.11 -4.325,-1.44 v 0 c -1.281,-0.28 -2.59,-0.49 -3.605,-1.44 -1.227,-1.25 -3.11,-1.41 -4.192,-3.11 -1.863,-2.95 -3.277,-3.14 -6.578,-1.69 -1.687,0.75 -3.172,0.75 -3.562,-1.38 -0.317,-1.73 -0.75,-2.61 -2.785,-2.04 -0.934,0.26 -1.575,-1.13 -1.114,-1.72 1.735,-2.22 -0.136,-3.4 -1.32,-4.42 -3.672,-3.16 -6.234,-6.81 -6.43,-11.82 -0.031,-0.87 -0.347,-1.8 -1.011,-2.23 -2.051,-1.33 -3.254,-3.49 -5.1371,-4.95 -2.7929,-2.15 -3.8164,-5.07 -3.9062,-8.44 -1.4258,-1.15 -1.5234,-2.73 -1.4102,-4.38 0.1953,-2.46 -1.9609,-4.12 -2.207,-6.433 -0.6875,-0.274 -1.168,-0.746 -1.4297,-1.442 -1.3242,-1.515 -0.8437,-2.671 0.7266,-3.613 0.2383,-0.476 0.4765,-0.953 0.7148,-1.429 -0.7187,-2.559 -1.6797,-5.083 -2.0859,-7.688 -0.4258,-2.758 0.75,-3.398 3.2656,-2.375 2.2188,0.902 4.5938,1.434 6.6992,3.453 -0.0937,-2.148 -0.6562,-3.223 -2.3437,-3.668 -1.4414,-0.379 -2.9297,-1.285 -2.9649,-2.805 -0.0742,-3.214 -1.7304,-4.167 -4.6132,-4.378 -1.3672,-0.098 -2.2852,-1.297 -2.2266,-2.836 0.0703,-1.774 1.3086,-2.067 2.7656,-2.063 1.9141,0.008 3.832,-0.156 5.5899,0.926 0.6523,0.402 1.707,1.031 2.0468,-0.184 0.2891,-1.035 -0.7929,-1.269 -1.6367,-1.445 -1.164,-0.242 -2.3398,-0.461 -3.4844,-0.785 -1.2656,-0.356 -2.5546,-0.738 -3.1679,-2.102 -3.7813,-0.625 -3.7774,-5.605 -7.4492,-6.476 -0.6016,-0.145 -1.9493,-1.047 -1.3477,-2.141 0.6875,-1.246 1.8008,-0.457 2.8398,-0.148 5.6875,1.679 10.9375,4.632 16.8711,5.64 1.738,0.293 3.969,0.539 4.215,3.125 0.762,1.817 2.004,1.356 3.152,0.555 1.774,-1.238 3.25,-2.766 4.043,-4.84 -1.976,-1.379 -3.543,-3.199 -5.168,-4.937 -1.469,-1.575 0.606,-5.121 -3.008,-5.637 -1.195,5.094 -2,5.57 -5.484,3.312 -2.7265,-0.062 -4.1562,-1.488 -4.3437,-4.175 -0.0977,-1.379 -0.586,-2.661 -1.6133,-3.493 -3.7187,-3.023 -6.9062,-6.851 -11.5469,-8.546 -2.2929,-0.84 -4.2617,-2.086 -6.2031,-3.461 -0.9258,-0.657 -2.4141,-0.946 -2.1367,-2.524 0.2578,-1.457 1.5078,-2.074 2.7265,-2.609 1.543,-0.668 2.8907,-0.469 4.3438,0.547 3.9961,2.789 8.4375,4.812 12.7422,7.078 1.7461,0.918 2.9336,0.972 3.2656,-1.363 0.043,-0.309 0.3516,-0.602 0.5781,-0.868 1.6602,-1.953 1.4688,-3.601 -0.8867,-4.754 -1.6797,-0.82 -2.4687,-2.16 -2.7148,-3.921 -1.375,-0.676 -2.2227,-2.094 -3.9024,-2.438 -0.9804,-0.199 -1.9336,-1.172 -1.7461,-2.418 0.1993,-1.297 1.1289,-2.101 2.4258,-2.297 0.8203,-0.125 1.6719,-0.047 2.5117,-0.058 1.2383,-0.078 2.3477,0.101 2.8868,1.433 1.2109,0.731 2.3906,1.512 3.6367,2.16 0.7851,0.411 1.7968,1.27 2.5195,0.207 0.793,-1.164 -0.3437,-1.918 -1.1016,-2.625 -1.4531,-1.347 -3.3086,-2.261 -4.3359,-4.058 -1.1289,-1.805 -2.2617,-3.043 -4.8672,-2.281 -2.2851,0.668 -4.6094,-1.055 -5.3281,-2.809 -1.2734,-3.113 -2.5156,-2.41 -4.3281,-0.93 1.5976,1.446 3.9882,3.047 2.3437,5.207 -1.4414,1.895 -3.9414,0.832 -5.8594,-0.363 -0.1015,-0.062 -0.1836,-0.16 -0.2851,-0.219 -2.2617,-1.285 -4.1602,-3.078 -6.3867,-4.457 -2.0313,-1.258 -4.0743,-3.051 -5.0157,-5.48 -0.7734,-2.008 2.0938,-1.172 2.2461,-2.571 0.0118,-0.121 0.0703,-0.242 0.0547,-0.355 -0.3828,-3 1.8594,-3.051 4.875,-3.25 -4.3711,-3.23 -3.9648,-6.734 -2.3984,-10.496 0.9726,-2.34 3.0078,-3.266 4.9375,-1.598 2.418,2.094 5.3515,3.66 7.0547,6.532 0.4765,0.035 1.0625,-0.098 1.4179,0.128 5.0977,3.286 10.7266,5.465 16.2696,7.813 4.602,1.945 9.551,2.887 14.66,5.375 -1.117,-2.664 -2.496,-3.75 -4.57,-3.926 -0.945,-0.078 -1.891,0.055 -2.75,-0.586 -2.973,-2.199 -6.067,-4.195 -8.9455,-6.574 -4.0117,-3.32 -5.8398,-8.32 -9.8125,-11.621 -1.2266,-1.024 -1.9219,-2.832 -0.6133,-4.547 0.4883,-0.637 0.3946,-0.984 -0.4101,-1.23 -1.4532,-0.442 -2.6328,-2.313 -4.461,-0.532 -0.9843,0.957 -2.0781,0.117 -2.0664,-0.879 0.0235,-1.984 -1.6328,-2.859 -2.332,-4.332 -0.9649,-1.812 -2.7734,-2.89 -3.875,-4.648 -1.3125,-2.094 -2.0078,-3.746 0.5156,-5.395 1.2461,-0.816 1.4258,-2.086 0.9024,-3.5 -0.4532,-1.218 -0.7774,-2.488 -1.1602,-3.738 -1.8047,-2.906 -1.4219,-6.148 -1.418,-9.328 0,-1.363 0.8047,-2.496 1.9805,-2.691 1.7734,-0.289 2.2188,-1.055 2.457,-2.77 0.3047,-2.223 2.7266,-3.812 4,-2.809 1.8086,1.43 4.0703,1.797 5.8828,3.297 5.668,4.676 12.5427,7.18 19.3127,9.75 2.902,1.106 5.379,-0.691 7.609,-2.23 0.996,-0.688 0.938,-2.246 -0.121,-3.156 -0.965,-0.832 -1.976,-1.844 -3.469,-1.586 -2.343,0.41 -3.914,-0.836 -5.164,-2.516 -1.101,-1.477 -2.613,-2.371 -3.996,-3.488 -1.9763,-1.598 -4.4842,-3.02 -4.0076,-6.258 0,-0.238 0,-0.477 -0.0039,-0.719 -1.332,-0.527 -1.5078,-1.64 -1.4453,-2.875 -1.3984,-0.734 -2.3359,-1.992 -3.4024,-3.086 -2.4218,-2.465 -2.3515,-3.758 0.6602,-5.437 1.2461,-0.696 1.1445,-1.153 0.6758,-2.133 -0.3477,-0.734 -0.5508,-1.539 -0.8164,-2.316 -1.3867,-0.079 -2.1406,-0.77 -2.1328,-2.2 -0.0157,-0.461 -0.0274,-0.925 -0.043,-1.39 -0.2305,-0.008 -0.4609,-0.024 -0.6914,-0.035 -4.2656,-5.309 -6.1992,-11.352 -5.7383,-18.157 0.0508,-0.765 0.3594,-1.66 1.0586,-1.703 3.3516,-0.207 2.3281,-2.219 1.6758,-3.961 -0.4414,-1.168 0.0195,-1.828 0.8633,-2.406 0.957,-0.656 1.5781,0.059 2.1289,0.668 1.3867,1.527 2.9687,2.75 4.914,3.496 5.1135,1.957 9.2735,-0.605 9.4645,-5.98 0.063,-1.661 0.739,-3.02 1.426,-4.375 1.711,-3.391 2.235,-6.485 -1.246,-9.18 -0.711,-0.547 -1.066,-1.555 -1.586,-2.352 -1.922,-2.191 -2.18,-3.922 -0.199,-4.75 2.406,-1.004 0.199,-1.668 0.203,-2.457 -1.684,-1.922 -3.363,-3.843 -5.0429,-5.765 -1.7891,-1.789 -3.0782,-3.93 -4.3047,-6.114 -1.6524,-2.941 -0.8164,-4.48 2.4453,-4.523 4.7223,-0.063 5.3003,-0.617 5.6913,-3.992 0.168,-1.426 -0.672,-1.934 -1.297,-2.711 -1.2732,-1.574 -2.7732,-2.981 -3.9138,-4.641 -1.8594,-2.719 -0.6758,-4.812 1.9804,-6.281 2.3824,-1.32 4.3984,-2.316 7.0974,-1.398 0.664,0.226 1.5,-0.493 1.731,-1.094 1.961,-5.153 5.144,-5.199 9.168,-2.391 0.711,0.496 1.605,0.555 2.222,-0.324 1.039,-1.481 -0.691,-1.059 -1.093,-1.496 -1.485,-1.613 -2.446,-5.438 -1.309,-6.61 1.578,-1.628 3.375,-1.16 5.203,-0.105 1.985,1.141 1.422,-0.66 1.598,-1.559 -2.063,-0.984 -2.195,-3.25 -3.301,-4.839 -1.574,-2.258 -0.82,-3.422 1.141,-4.536 -0.243,-0.718 -0.485,-1.441 -0.723,-2.16 -3.785,-1.957 -7.656,-3.617 -12.051,-2.566 -1.34,0.32 -3.136,0.859 -3.394,-0.656 -0.571,-3.372 -3.461,-5.719 -3.504,-9.305 -1.403,0.199 -2.6799,0.344 -3.9416,0.574 -2.4492,0.449 -3.5235,-0.312 -3.7578,-2.801 -0.0664,-0.711 0.0234,-1.437 -0.0196,-2.152 -0.1132,-1.848 0.3516,-3.656 2.3477,-3.813 2.0312,-0.16 2.7617,1.504 2.7109,3.415 1.1484,0.64 2.1174,1.414 2.1604,2.882 0.402,-0.293 0.676,-0.656 0.691,-1.179 0.043,-1.438 -0.012,-3.196 1.582,-3.637 1.711,-0.481 2.262,1.305 3.067,2.453 1.441,2.059 3.371,3.66 5.23,5.316 0.777,0.692 2.231,1.02 2.16,-0.246 -0.195,-3.371 -0.402,-7.457 -3.011,-9.437 -4.161,-3.16 -5.524,-7.914 -8.407,-11.746 -1.179,-1.571 -0.949,-3.692 -0.078,-5.485 0.852,-1.746 2.27,-2.265 4.176,-1.546 0.711,0.265 0.988,-0.411 1.047,-1.067 0.066,-0.805 -0.149,-1.711 0.738,-2.254 0.731,-1.238 3.613,-0.355 3.09,-2.285 -0.856,-3.152 0.992,-6.586 -1.383,-9.555 -1.422,-1.781 -1.058,-3.996 -0.66,-6.199 0.602,-3.336 2.312,-6.75 -0.277,-10.078 -0.411,-0.523 -0.407,-1.5 -1.317,-1.301 -3.476,0.77 -5.195,-1.765 -6.965,-3.84 -3.3707,-3.961 -8.4332,-6.519 -10.0387,-11.976 -0.1094,-0.371 -0.7539,-0.559 -1.0976,-0.891 -3.1758,-3.047 -4.086,-7.156 -5.0743,-11.183 -0.3593,-1.453 0.6524,-2.559 1.9805,-3.051 1.25,-0.465 1.9961,0.531 2.6445,1.39 0.6329,0.836 0.9102,1.981 1.4532,2.028 4.5507,-1.735 3.9726,-5.442 4.2031,-8.852 0.0117,-0.179 0.3047,-0.343 0.4687,-0.515 0.7461,-1.114 1.8985,-0.59 2.8907,-0.711 1.8159,0.703 3.5509,0.836 5.0429,-0.723 0.227,-2.09 -1.199,-3.465 -2.172,-5.035 -2.2733,-1.172 -1.156,-3.309 -1.4373,-5.047 -1.75,-1.781 -3.3321,-3.703 -6.3789,-2.352 -1.711,0.762 -2.8985,-0.492 -3.711,-1.968 -1.1601,-1.883 -1.6758,-4.227 -3.7617,-5.442 -1.0664,-0.625 -1.9531,-1.211 -2.0313,-2.664 -0.082,-1.453 0.6485,-2.344 1.9297,-3.07 -1.5429,-1.125 -2.8398,-1.961 -4.0156,-2.945 -1.5391,-1.286 -3.6094,-2.356 -4.0469,-4.352 -0.4179,-1.883 -1.5429,-3.133 -2.4882,-4.594 -1.7305,-0.3 -3.8829,0.86 -5.0352,-1.453 v 0.004 c -1.0234,-0.691 -0.7461,-2.031 -1.4453,-2.883 v 0 c -1.5469,-1.312 -3.0391,-4.773 -2.2656,-6.09 1.0351,-1.75 0.1445,-2.445 -1.0586,-3.437 -1.8438,-1.512 -3.2891,-3.586 -2.0938,-5.934 0.9492,-1.867 1.8203,-3.398 1.1641,-5.609 -0.5781,-1.941 1.1289,-2.68 2.5703,-3.309 0.8086,-0.355 1.707,-1.242 2.5625,-0.16 0.9297,1.168 0.6445,2.465 0.1562,3.735 -0.0859,0.222 -0.1367,0.461 -0.2382,0.675 -1.0079,2.114 -0.4571,3.629 1.7187,4.528 1.4883,-2.75 4.6133,-4.043 7.5742,-3.137 1.6407,0.199 1.168,-1.715 2.1641,-2.16 v 0 c -0.2852,-0.422 -0.6524,-0.715 -1.1836,-0.649 -4.0195,0.493 -4.0547,0.508 -5.3164,-3.168 -0.2813,-0.828 -0.7305,-1.078 -1.5,-1.238 -3.2461,-0.668 -5.0859,-2.937 -6.4141,-5.762 -1.0547,-1.289 -2.0742,-2.304 -4.0781,-2.234 -2.6914,0.098 -3.0156,-0.523 -1.5547,-2.922 0.8125,-1.336 0.7852,-2.14 0.0117,-3.418 -1.2812,-2.105 -2.3242,-4.367 -3.375,-6.609 -0.5703,-1.223 -0.8164,-2.653 0.293,-3.645 1.1836,-1.054 2.6133,-0.886 3.9219,0.024 0.3867,0.269 0.7851,0.527 1.1758,0.789 v 0 c 1.7226,0.203 2.6914,1.156 2.8789,2.887 0.0507,1.464 1.0117,2.246 2.164,2.882 1.2383,-0.078 2.3516,0.098 2.8907,1.43 0.4531,0.129 0.9218,0.215 1.3515,0.395 0.668,0.285 1.2656,1.531 2.0313,0.41 0.5507,-0.809 -0.1914,-1.551 -0.793,-2.153 -1.4258,-1.437 -3.0625,-2.718 -4.2422,-4.332 -2.0039,-2.746 -4.9883,-4.715 -6.2812,-8.004 -0.3086,-0.753 -1.1368,-1.632 -0.5469,-2.312 1.7539,-2.016 0.1484,-3.109 -1.125,-3.953 -2.9492,-1.949 -5.1524,-4.946 -8.6328,-6.153 -0.5625,-0.195 -1.0547,-0.636 -0.9805,-1.332 0.0859,-0.839 0.7109,-1.207 1.4609,-1.32 0.586,-0.086 1.1914,-0.086 1.7852,-0.058 1.9883,0.085 2.5781,-0.598 1.7891,-2.586 -0.4024,-1.02 -1.2227,-2.149 -0.5,-3.399 1.2734,-2.195 0.5546,-4.246 -0.4571,-6.273 -1.4023,-2.094 0.4141,-2.981 1.5938,-3.992 1.7344,-1.493 3.4922,-0.934 5.1992,0.191 1.3164,0.867 1.8672,1.809 1.3555,3.543 -0.8907,3.012 -0.1719,4.707 2.7656,5.875 2.2461,0.891 2.3594,1.973 1.332,3.746 -0.1679,0.555 -0.6601,1.316 -0.457,1.629 2.4258,3.766 1.0664,7.281 -0.7031,10.695 -0.8711,1.68 -0.5,2.863 0.6601,4.117 1.6016,1.739 3.5703,3.133 4.8281,5.188 4.6094,3.133 9.4961,5.914 12.9961,10.433 0.9883,1.282 1.9141,1.016 2.9571,-0.046 1.1367,-1.153 2.4062,-2.95 4.1601,-1.965 3.1407,1.758 1.9727,-0.766 2.2305,-1.938 v 0 c -1.168,-1.289 -2.2188,-2.593 -0.7266,-4.328 0.2852,-0.621 0.8399,-0.711 1.4297,-0.726 -0.4726,-1.344 -2.25,-1.903 -2.1523,-3.59 -1.1992,-0.961 -2.3985,-1.926 -3.5938,-2.887 -0.9843,0.047 -1.8008,-0.215 -2.6601,-0.812 -2.4414,-1.708 -2.6563,-4.122 -2.3789,-6.711 0.2539,-2.383 -0.1328,-3.997 -3,-4.563 -1.6211,-0.32 -3.4727,-0.867 -4.6993,-2.414 -0.8281,-1.039 -1.3046,-2.059 -0.6132,-3.262 0.6875,-1.195 1.7109,-0.754 2.8359,-0.566 2.0508,0.34 4.2109,0.98 6.1875,-0.406 -1.2383,0.07 -2.3516,-0.106 -2.8828,-1.442 -1.2031,-0.008 -2.4024,0.016 -3.6016,-0.027 -1.4687,-0.055 -2.5859,-1.063 -2.0468,-2.285 1.4882,-3.379 -0.7422,-4.43 -3,-5.617 -2.4844,-1.02 -4.504,-2.625 -4.2422,-5.508 0.2382,-2.578 1.789,-4.625 4.289,-5.653 2.8047,-1.152 4.7813,0.379 6.5664,2.286 0.4844,0.515 0.8985,1.097 1.3438,1.648 6.2422,-0.543 12.1836,2.008 18.4767,1.734 1.844,-0.082 3.984,-0.558 5.848,0.078 6.957,2.383 14.023,0.395 21.019,0.934 -0.187,-0.336 -0.375,-0.512 -0.574,-0.531 -3.942,-0.375 -4.199,-0.582 -4.52,-4.457 -0.097,-1.199 -0.808,-1.492 -1.668,-1.266 -1.136,0.305 -2.199,0.895 -3.297,1.363 -1.433,2.231 -3.328,1.711 -5.234,0.821 -0.617,-0.289 -1.281,-1.235 -1.691,-1.114 -4.043,1.219 -3.371,-1.953 -3.887,-4.031 -1.547,-0.547 -2.785,-0.48 -3.781,1.164 -0.711,1.18 -2.242,1.446 -3.4769,1.364 -0.9765,-0.067 -1.2656,-1.325 -1.3281,-2.258 -0.1445,-2.184 1.3281,-2.567 3.039,-2.418 2.652,0.23 3.149,-1.172 2.402,-3.258 -0.515,-1.453 -0.55,-2.523 0.985,-3.242 v 0 c 1,-1.258 2.398,-0.516 3.605,-0.723 0.801,-0.805 1.227,-1.75 -0.336,-1.859 -0.789,-0.059 -1.465,0.164 -2.289,-0.321 -1.957,-1.152 -3.476,-0.523 -4.676,1.403 -1.1089,1.777 -2.6831,3.004 -4.9527,2.941 -4.5898,0.856 -8.7382,-2.078 -13.3242,-1.535 -1.2695,0.148 -2.0429,-1.156 -2.7812,-2.07 -0.4883,-0.61 -1.2071,-1.422 -0.5781,-2.239 0.7226,-0.929 1.6679,-0.683 2.5312,-0.011 1.3438,1.047 2.1328,1.136 2.7539,-0.891 0.5234,-1.711 2.082,-1.699 2.6211,0.012 0.4883,1.562 1.3828,2.129 2.7422,2.351 0.5547,0.094 1.2344,0.121 1.4492,-0.668 0.1641,-0.601 -2.2773,-4.777 -2.8437,-5.082 -2.8282,-1.504 -5.6211,0.09 -8.4258,0.039 -0.2383,0 -0.4805,0 -0.7188,0.004 -3.1758,2.336 -6.0312,0.442 -8.9492,-0.672 -1.8555,-0.707 -3.3672,-2.343 -5.5234,-2.195 -2.1836,0.153 -3.1953,-1.23 -3.3594,-2.953 -0.1602,-1.699 0.5547,-3.312 2.6992,-3.547 5.4805,-0.515 10.6445,0.074 15.1133,3.785 1.3281,1.106 3.0312,0.575 4.7109,0.328 -0.2304,-0.703 -0.2422,-1.132 -0.4648,-1.355 -2.2305,-2.238 -0.7695,-4.004 0.5586,-5.961 1.5312,-2.262 3,-0.281 4.4101,-0.043 1.1172,0.191 2.2579,0.887 3.1485,1.637 2.5664,2.164 5.3398,4.058 8.4101,5.301 4.031,1.636 7.699,4.449 12.371,4.222 0.047,-4.191 0.043,-4.176 -4.121,-5.125 -0.687,-0.156 -1.5,-0.375 -1.945,-0.851 -0.934,-0.996 -3.301,-1.09 -2.821,-2.735 0.356,-1.211 2.348,-1.238 3.778,-1.379 1.359,-0.132 3.453,0.723 3.847,-0.921 0.379,-1.555 -1.785,-1.915 -2.964,-2.637 -1.36,-0.832 -3.094,-2.035 -2.317,-3.52 0.965,-1.84 2.66,-0.59 3.969,0.309 0.125,0.086 0.41,-0.067 0.754,-0.137 -1.512,-3.976 -3.278,-7.723 -7.317,-9.73 -1.078,-0.535 -2.218,-1.86 -3.4605,0.246 -0.6992,1.176 -2.7735,0.976 -3.6016,0.191 -2.8594,-2.703 -6.8789,-4.015 -9.0078,-7.555 -0.9492,-1.14 -1.6367,-2.652 -3.418,-0.683 -1.3906,1.535 -2.789,0.308 -3.4336,-0.988 -1.8593,-3.754 -4.2617,-7.114 -6.8906,-10.352 -0.9805,-1.211 -1.0898,-2.586 0.0469,-3.859 0.164,-2.2 -1.3633,-3.774 -2.0938,-5.637 -0.2929,-0.742 -0.9922,-1.465 -0.2656,-2.309 0.7266,-0.839 1.7305,-0.781 2.6719,-0.632 0.5547,0.089 1.0469,0.523 1.5937,0.726 2.9532,1.098 5.75,2.863 7.3985,5.289 1.7929,2.641 4.7265,3.238 6.8515,5.293 4.4063,4.27 9.2969,8.172 14.531,11.512 1.778,1.133 3.317,2.269 3.266,4.715 -0.024,1.148 0.75,2.414 2.031,1.453 1.52,-1.141 3.426,-1.367 4.981,-2.27 -1.278,-3.144 -4.086,-4.215 -6.36,-5.879 -6.543,-2.511 -10.906,-7.656 -15.3435,-12.707 -3.2773,-3.722 -5.1562,-8.586 -9.3906,-11.535 -1.6446,-1.148 -2.5625,-2.621 -1.4297,-4.535 0.7422,-1.258 3.625,-1.07 5.1758,0.246 3.1718,2.695 6.8554,4.777 9.5547,8.043 0.5546,0.668 1.2851,1.508 2.4687,0.492 -1.1445,-1.121 -2.1172,-2.418 -2.2305,-3.968 -0.1601,-2.204 -1.2773,-3.618 -2.8945,-4.961 -2.1875,-1.817 -3.5703,-4.075 -2.4922,-7.11 -1.4765,-1.285 -3.9804,-1.668 -4.2383,-4.019 -0.3203,-2.903 -1.9726,-3.535 -4.4375,-3.18 -2.0312,0.289 -3.789,-0.328 -5.2851,-1.621 -1.4375,-1.242 -2.1172,-2.906 -1.5235,-4.758 0.6485,-2.031 2.2852,-1.746 3.8477,-1.242 1.7109,0.551 2.0586,-0.445 2.2695,-1.805 0.1172,-0.722 -1.1093,-2.062 0.7969,-2.07 1.2891,-0.008 2.0078,0.723 2.0625,1.988 0.0508,1.207 0.625,2.391 1.6133,2.571 2.2851,0.425 3.5156,2.21 4.5976,3.71 1.4415,2 3.0665,3.305 5.3633,3.922 1.25,-0.007 2.9141,0.188 2.6953,1.61 -0.5351,3.422 1.9961,4.156 4.0621,5.355 1.368,0.801 2.547,1.742 3.313,3.149 v 0 c 1.852,0.144 2.699,1.543 3.609,2.871 2.149,0.656 4.223,1.433 6.137,2.668 1.703,1.101 6.285,-0.051 7.285,-1.731 0.34,-0.57 0.207,-1.168 -0.375,-1.539 -0.699,-0.441 -1.367,-0.785 -2.316,-0.469 -2.555,0.852 -4.508,0.321 -4.985,-2.699 -0.214,-1.379 -1.207,-1.226 -2.144,-1.269 -1.516,-0.086 -2.649,-0.981 -2.742,-2.34 -0.137,-1.906 -1.184,-3.653 -0.852,-5.602 0.235,-0.246 0.469,-0.492 0.699,-0.738 1.965,-2.734 3.891,-2.941 6.508,-0.699 1.922,0.539 3.852,1.066 5.035,2.894 3.145,1.453 6.028,-0.633 9.133,-0.097 -0.433,-3.782 -3.183,-5.434 -4.82,-7.817 -4.141,-3.066 -7.735,-6.875 -12.617,-8.953 -1.34,-0.57 -2.676,-1.758 -2.442,-3.641 0.235,-1.871 2.352,-0.496 3.336,-2.015 -7.449,-4.063 -14.828,-8.098 -20.6952,-14.238 -4.4843,-0.758 -5.2773,-1.891 -5.0898,-6.516 0.0898,-2.219 1.0586,-3.102 3.1406,-2.805 3.8907,0.555 7.8203,1.196 11.2034,3.293 1.48,0.918 2.883,0.985 4.433,0.973 0.262,-0.695 0.746,-1.168 1.438,-1.434 -0.832,-1.551 -2.309,-1.855 -3.875,-2.187 -2.66,-0.563 -5.309,-1.274 -7.5939,-2.836 -1.7031,-1.164 -3.2461,-3.238 -5.2617,-0.391 -0.1875,0.266 -1.0078,0.399 -1.3203,0.223 -3.6094,-2.059 -7.5743,-3.68 -9.6016,-7.731 -0.5234,-1.039 -0.0859,-1.644 0.7148,-2.046 2.1563,-1.083 1.3711,-2.137 0.0118,-3.145 -1.3477,-1 -2.5782,-2.195 -1.5743,-3.867 0.7422,-1.242 0.668,-2.121 0.0704,-3.266 -0.6016,-1.144 -0.7032,-2.398 0.5312,-3.199 1.3789,-0.898 2.1797,0.234 3.0078,1.105 2.7578,2.903 4.7031,3.313 8.4688,1.747 1.3125,-0.547 2.5156,-0.258 3.8203,0.144 5.4887,1.703 10.4497,4.586 15.6167,6.977 2.106,0.972 4.055,1.175 6.184,1.16 0.914,-0.008 2.024,0.222 2.262,-1.156 0.269,-1.579 -1.071,-1.575 -1.981,-2.036 -1.07,-0.547 -2.289,-0.379 -3.379,-1.078 -4.277,-2.742 -7.781,-6.429 -11.863,-9.402 -1.047,0.012 -1.765,-0.469 -2.16,-1.438 -1.4649,0.172 -2.1407,-1.617 -3.6016,-1.449 -1.9101,0.106 -4,-0.699 -4.6172,2.547 -0.2265,1.18 -1.5273,3.512 -3.3984,3.738 -2.211,0.27 -0.7852,-2.746 -2.375,-3.355 -0.1992,-0.078 -0.3555,-0.32 -0.4844,-0.516 -0.8476,-1.297 -1.0976,-2.59 0.0625,-3.859 1.3945,-1.477 3.6094,-0.082 5.0391,-1.442 -0.4805,-2.527 -0.0352,-2.906 2.5898,-2.921 1.5469,-0.008 3.1055,1.824 4.6485,0.023 -0.004,-0.703 -0.0079,-1.406 -0.0118,-2.109 1.7465,-2.477 3.4185,-5.047 7.1015,-4.469 0.231,0.035 0.535,-0.391 0.805,-0.602 -0.477,0 -0.953,-0.004 -1.43,-0.004 -1.238,0.071 -2.355,-0.097 -2.887,-1.441 -0.484,-0.344 -0.925,-0.809 -1.464,-1.008 -4.895,-1.828 -7.8208,-4.801 -7.6802,-10.551 0.0743,-3.043 0.9844,-4.586 3.7813,-3.214 2.6639,1.308 2.8089,-0.207 3.1949,-1.954 0.559,-2.527 1.801,-3.269 4.278,-2.671 0.898,0.218 1.375,1.437 2.906,0.875 -0.352,-2.344 -0.781,-4.543 -3.668,-5.192 -1.973,-0.441 -3.602,-1.48 -4.6093,-3.164 -1.0586,-1.762 -1.9922,-2.516 -3.9258,-1.035 -1.4571,1.113 -2.1211,0.219 -2.1836,-1.363 -0.0508,-1.254 0.1289,-2.368 1.1758,-3.223 0.6992,-0.578 1.7851,-0.871 1.7109,-2.098 1.3789,-3.148 1.9141,-3.379 5.043,-2.16 0.437,1.496 2.453,1.391 2.902,2.871 1.106,-0.093 2.809,0.168 1.399,-1.765 -0.93,-1.278 -0.59,-2.637 -0.699,-3.985 -2.067,-0.824 -3.665,-2.242 -4.875,-4.058 -1.2817,-1.926 -1.2973,-4.2 -0.602,-6.207 0.715,-2.067 2.871,-1.172 4.434,-1.235 1.531,-0.062 3.078,-0.207 4.617,0.278 1.465,0.461 2.941,-0.098 3.922,-1.078 1.363,-1.368 2.906,-1.555 4.593,-1.379 2.364,0.246 4.442,-0.129 5.942,-2.176 2.492,-0.207 5.148,0.789 5.484,2.941 0.586,3.742 2.52,3.02 4.75,2.375 1.539,-0.441 3.078,-0.199 4.617,-0.265 1.692,-0.075 2.567,-0.657 1.59,-2.422 -1.023,-1.848 -0.629,-3.41 0.832,-4.809 0.004,-0.473 0.012,-0.953 0.016,-1.422 0.324,-2.179 -1.391,-3.191 -2.633,-4.402 -1.309,-1.27 -2.449,-2.578 -2.863,-4.43 -0.164,-0.75 -0.321,-1.769 0.484,-1.789 4.113,-0.082 2.481,-2.191 1.664,-4.18 -0.301,-0.742 -0.301,-1.66 -0.219,-2.468 0.153,-1.543 0.614,-2.461 2.536,-1.512 1.796,0.891 3.82,1.32 5.742,1.949 0.551,-1.41 -0.098,-2.219 -0.903,-2.687 -1.808,-1.071 -2.355,-2.934 -3.238,-4.602 -1.047,-1.98 0.731,-4.211 -0.57,-6.148 -1.492,-3.883 -0.844,-4.992 2.973,-5.051 1.167,-0.012 2.339,0 3.511,0 v 0 c -0.48,-1.352 -2.273,-1.902 -2.164,-3.602 -2.207,-3.968 -5.316,-7.371 -7.172,-11.558 -0.496,-0.949 -0.996,-1.891 -1.492,-2.84 -1.422,-0.512 -1.801,-2.039 -2.859,-2.902 -1.223,-1.278 -2.012,-2.649 -0.922,-4.418 1.066,-1.719 2.57,-0.27 3.64,-0.539 2.075,-0.532 5.297,0.046 6.059,-1.75 1.328,-3.141 3.5,-2.582 5.785,-2.672 1.223,-0.051 2.504,0.25 3.84,-0.309 -0.641,-2.312 -3.523,-1.949 -3.992,-4.012 -0.238,-0.48 -0.481,-0.961 -0.719,-1.437 -1.332,-3.434 -0.914,-4.063 2.875,-4.32 3.442,2.949 7.434,5.019 11.32,7.277 2.25,1.312 4.356,2.91 6.153,4.82 1.262,1.34 2.656,2.36 4.441,2.852 0.961,0.258 1.992,1.429 2.852,0.109 0.781,-1.199 1.195,-2.601 0.211,-4.012 -0.731,-1.039 -1.735,-1.5 -2.922,-1.898 -1.621,-0.531 -3.531,-0.5 -4.57,-2.41 -0.399,-0.719 -1.5,-1.012 -2.586,-0.539 -2.059,0.89 -3.27,-0.281 -3.77,-2.09 -0.621,-2.262 -2.203,-3.582 -3.957,-4.871 -1.148,-0.852 -2.379,-1.738 -3.164,-2.879 -2.031,-2.973 -5.34,-4.512 -7.606,-7.172 -0.242,0 -0.48,0 -0.722,0 -1.473,-1.359 -4.11,-2.219 -2.156,-5.039 0.234,0 0.472,-0.012 0.707,-0.012 0.625,-1.058 1.836,-1.949 -0.106,-3.136 -1.094,-0.661 -0.957,-2.141 -0.027,-3.133 0.828,-0.891 1.586,-0.438 2.461,0.242 1.777,1.367 1.777,-0.141 2.019,-1.359 0.532,-2.7036 1.688,-3.3012 4.219,-2.3012 0.566,0.2187 0.918,1.1875 1.793,0.5195 -0.082,-0.4687 -0.133,-0.9414 -0.246,-1.3906 -0.832,-3.2383 2.562,-6.4492 0.055,-9.7305 -0.231,-0.3008 0.211,-0.8281 0.55,-1.2187 2.856,-3.1992 5.387,-3.3789 8.645,-0.5821 2.277,1.961 3.668,1.7422 5.219,-0.9765 0.804,-1.4219 2.113,-2.3008 3.488,-1.9414 1.664,0.4414 3.375,0.1679 4.934,0.6484 1.867,0.5703 4.109,0.6406 5.195,2.7617 1.168,1.2305 3.23,1.5586 3.629,3.5782 1.238,0.9414 2.539,1.4531 4.187,1.5195 3.563,0.1523 6.981,1.0117 9.75,3.4805 1.61,1.4218 3.52,2.2304 5.5,2.9414 2.391,-0.0391 3.426,0.8515 2.364,3.3088 -0.375,0.883 -0.024,1.652 0.8,2.14 0.543,0.332 1.164,0.411 1.731,0.172 1.289,-0.543 0.285,-1.402 0.222,-2.121 -0.277,-3.1287 0.457,-3.8787 3.356,-2.6795 3.629,1.5 7.148,2.9605 11.219,2.0895 1.761,-0.3786 2.746,0.918 3.062,2.379 0.488,2.27 1.953,2.36 3.887,2.742 4.433,0.868 8.75,0.118 13.129,-0.031 2.965,-0.09 5.566,-0.519 8.054,-2.301 3.415,-2.449 6.586,-1.929 8.993,1.36 1.113,1.519 2.425,2.269 4.191,2.293 5.848,0.058 11.648,1.136 17.527,0.769 1.817,-0.109 3.543,-0.191 5.164,-1.152 3.305,-1.969 6.79,-1.16 10.059,-0.098 1.82,0.59 2.402,2.52 1.863,4.508 -0.203,0.75 -1.007,1.359 -0.457,2.441 1.84,-0.281 3.41,0.622 4.989,1.469 1.211,0.641 2.457,0.973 3.793,0.551 0.894,-0.289 1.308,-1.07 1.472,-1.898 0.199,-1 -0.785,-1.211 -1.355,-1.301 -1.785,-0.281 -3.215,-0.61 -3.203,-2.973 0.011,-2.367 1.277,-3.219 3.277,-4.019 4.594,-1.848 8.156,-4.75 9.086,-10.0785 0.355,-2.0586 1.644,-3.1407 3.93,-2.1211 0.519,0.2422 1.175,0.1601 1.765,0.2187 3.055,0.2422 6.137,-0.4297 9.188,0.5235 1.367,0.4179 2.457,-0.0508 1.437,-1.8321 -1.355,-2.3711 0.641,-3.3593 2.028,-4.1406 2.609,-1.4687 9.39,0.1797 11.855,2.5703 h 0.359 0.36 c 1.254,-0.0273 2.363,0.0899 2.824,1.5899 1.074,3.5117 4.395,4.6797 7.16,4.7226 6.52,0.0664 12.945,1.2188 19.602,0.4102 7.156,-0.8633 14.574,-0.8125 21.797,0.5586 1.597,0.3008 2.406,0.5976 2.902,-1.5586 0.535,-2.3399 2.144,-2.543 3.734,-0.6914 1.196,1.3789 2.614,1.3789 4.196,1.4804 6.828,0.4688 13.574,-1 20.398,-0.8007 1.938,0.0507 3.824,0.9414 5.637,0.6406 3.496,-0.582 7.035,0.2109 10.488,-0.5899 v 0 c 2.332,-1.1523 4.797,-2.0195 7.398,-1.6718 3.54,0.4804 7.141,-0.1407 10.665,0.8906 1.738,0.5117 3.539,-0.0899 5.136,-1.0781 1.356,-0.8321 2.871,-1.4805 4.422,-0.8125 1.988,0.8515 3.453,0.5 4.637,-1.2891 1.121,-1.6914 2.59,-1.2305 2.824,0.2891 0.481,3.1523 2.75,2.5195 4.305,2.082 4.402,-1.2695 8.707,-1.4414 13.121,-0.2305 0.984,0.2696 2.008,-0.0117 3.078,-0.2812 2.305,-0.5899 4.738,-1.2305 7.113,-0.0586 0.789,-1.0703 1.949,-0.6914 2.969,-0.6992 3.336,-0.043 6.672,-0.0235 10.008,-0.0235 7.824,-0.5078 15.676,0.8711 23.515,-1.3281 7.875,-2.2109 16.161,-0.5 24.262,-1.3906 7.356,-0.8008 14.867,-0.0703 22.305,-0.2188 2.203,-0.039 4.187,1.0196 6.379,0.7696 4.535,-0.5 4.539,-0.4688 5.258,3.8203 1.804,-2.4414 4.746,-2.0586 7.128,-2.6407 3.25,-0.789 6.653,-0.9609 10.11,0.5391 4.605,2 9.504,3.1328 14.515,0.75 1.399,-0.6601 2.997,-0.5391 4.446,0.4531 1.945,1.3282 4.191,0.5664 6.304,0.6289 1.793,0.0391 1.684,-1.7421 2.336,-2.789 0.985,-1.5821 2.559,-1.6406 4.149,-1.4219 1.465,0.1992 2.535,1.1406 2.543,2.5898 0.012,1.9805 0.98,3.1211 2.734,3.0313 3.383,-0.1719 6.606,0.918 9.981,0.8594 8.515,-0.1407 17.039,-0.0508 25.558,-0.0508 4.949,-1.3516 9.961,-0.8086 14.946,-0.3906 2.949,0.25 5.878,1.6015 8.82,1.0312 3.363,-0.6601 6.328,-0.4414 9.074,1.6914 0.578,0.4492 1.379,0.7578 2.027,0.3594 3.227,-1.9922 6.778,-1.043 10.2,-1.2305 1.914,-0.1093 3.57,0.1875 5.332,1.4492 1.941,1.3982 4.957,1.5702 6.711,-0.0781 2.742,-2.582 5.449,-2.4219 8.582,-1.4922 3.609,1.0703 7.507,1.6211 10.961,0.4493 3.57,-1.2188 6.601,-0.7696 10.078,-0.0079 5.906,1.2891 12.402,3.5001 15.597,-4.8398 0.657,-1.7227 2.961,-1.6602 3.282,-0.0898 0.445,2.2187 1.781,2.2382 3.461,2.6679 2.871,0.75 5.707,0.5508 8.546,0.2696 0.985,-0.0977 1.942,-0.5391 2.563,0.4414 2.309,3.6678 5.894,3.5698 9.539,3.3708 1.367,-3.9919 1.965,-4.0896 5.934,-2.9021 2.515,0.7617 5.332,0.4492 7.285,2.7931 0.304,0.367 1.375,0.109 2.09,0.109 1.789,0.008 3.586,0.129 5.363,-0.031 2.129,-0.18 3.703,0.551 4.894,2.262 1.297,1.867 -1.183,2.457 -1.664,4.269 2.821,0 5.289,-0.109 7.746,0.028 1.711,0.101 3.575,-0.7 5.125,0.679 1.231,0.071 1.973,0.653 2.125,1.922 0.36,3.039 -2.91,1.828 -4,3.5 4.407,-0.09 8.571,0.699 12.684,1.801 0.734,-0.461 1.668,-0.621 2.18,-1.43 1.183,-1.992 2.375,-1.961 3.578,-0.011 0.492,0.46 0.988,0.929 1.48,1.39 0.469,0.012 0.938,0.031 1.407,0.039 1.519,0.321 2.468,-0.777 3.586,-1.449 0,-0.238 0.003,-0.48 0.011,-0.719 0.606,-3.16 2.946,-2.269 4.789,-1.832 1.422,0.34 1.969,-0.148 2.5,-1.238 0.7,-1.422 -0.332,-1.992 -1.265,-2.481 -0.813,-0.421 -2.407,-0.48 -2.125,-1.492 0.949,-3.437 -1.36,-2.468 -3.082,-2.687 -2.457,-0.313 -3.543,-1.832 -2.727,-3.5393 0.543,-1.1406 1.465,-1.8515 2.832,-1.8633 1.223,0 2.598,-0.1289 2.945,1.3711 0.395,1.6995 1.282,1.8595 2.797,1.6095 0.711,-0.109 1.895,0.293 2.25,0.851 1.098,1.731 1.867,1.821 3.606,0.551 1.269,-0.929 3.453,-0.519 4.406,0.981 0.969,1.539 -0.215,2.367 -1.496,1.968 0.004,-0.031 0.004,-0.05 0.004,-0.082 -0.008,0.024 -0.016,0.043 -0.024,0.063 0.008,0.008 0.012,0.008 0.02,0.019 -0.484,2.239 1.426,1.77 1.875,2.77 0.922,0.07 2.266,-0.23 2.375,0.98 0.105,1.2 -1.07,1.719 -2.203,1.872 -0.473,0.058 -0.957,0.039 -1.438,0.039 -1.933,0.031 -2.293,1.23 -2.359,2.879 -0.074,1.851 0.879,2.261 2.437,2.16 0.723,-0.039 1.45,0 1.911,0.711 2.234,-0.243 2.32,2.75 4.312,2.871 1.242,-1.953 2.906,-3.41 5.047,-4.313 1.375,-1.48 3.512,-2.269 4.754,-0.969 1.558,1.622 2.758,2.668 5.195,2.969 1.86,0.223 2.695,2.789 3.406,5.063 2.446,-1.821 5.129,-1.141 7.711,-1.321 1.707,-0.113 3.528,-0.269 2.723,-2.851 -1.199,-1.231 -1.027,-2.649 0.313,-3.281 2.687,-1.27 1.488,-3.149 1.05,-4.868 -0.539,-2.109 -2.39,-1.16 -3.636,-1.171 -2.653,-0.008 -4.321,-1.04 -4.938,-3.649 -1.344,-2.012 -0.996,-3.82 0.711,-5.3827 1.84,-1.6797 3.723,-3.3985 6.504,-1.8399 1.836,2.9216 4.629,3.0896 7.711,2.9416 2.5,-0.11 4.883,-1.1994 7.422,-0.7697 1.484,-4.4883 4.164,-6.4297 8.867,-6.5 2.57,-0.039 5.336,0.2578 5.926,-3.3906 0.113,-0.7109 1.031,-0.8984 1.781,-0.9297 4.633,-1.9297 5.922,-1.7187 8.656,1.4414 4.028,0.3203 4.18,0.5977 2.137,4.0195 -0.121,0.211 -0.305,0.3789 -0.383,0.5977 -0.121,0.3516 -0.164,0.7617 0.266,0.9023 0.308,0.1094 0.945,0.1172 0.98,0.0196 0.539,-1.6016 2.442,-2.6602 1.731,-4.7813 -0.535,-1.5781 -0.614,-3.3984 -3.082,-2.9492 -0.969,0.1797 -1.59,-0.3594 -1.657,-1.3984 -1.636,-2.1524 -0.175,-3.2735 1.442,-4.3321 0.48,-0.8281 1.414,-1 2.156,-1.4492 0.109,-4.8398 3.598,-6.3789 8.801,-3.8203 0.461,-0.7812 0.836,-1.6406 1.406,-2.3398 0.957,-1.1914 2.207,-1.3086 3.543,-0.6289 1.266,0.6406 2.242,1.5585 1.762,3.0898 -0.867,2.75 0.285,4.7305 2.426,6.0898 2.125,1.3594 4.83,0.5704 7.19,-1.9023 1.91,-2.0078 4.27,-0.9688 6.44,-1.168 1.41,-0.1211 2.23,0.668 2.31,2.1289 0.15,1.7696 1.91,1.9414 2.89,2.8789 0.23,0 0.47,0 0.71,0 2.51,-2.5781 4.87,-4.5078 9.18,-3.8476 4.07,0.6211 8.53,0.2773 12.4,-2.0899 1.08,-0.6718 2.43,-0.9804 3.7,-1.2226 2.22,-0.4063 4.27,-1.8985 6.68,-1.0664 0.89,-3.2813 4.54,-2.4922 6.33,-4.4414 -0.06,-0.0703 -0.17,-0.2813 -0.34,-0.4102 -1.47,-1.0508 -1.55,-2.332 -0.54,-3.7109 0.69,-0.918 1.72,-1.6406 2.79,-1.0274 1.59,0.9063 0.87,2.5 0.59,3.8282 -0.13,0.6289 -1.23,1.2109 -0.53,1.8593 2.67,2.4805 1.48,5.3321 0.74,8.0196 -0.38,1.3593 0.12,3.6328 -1.71,3.9101 -2.29,0.3516 -1.33,-2.3906 -2.36,-3.3789 -0.13,-0.1406 -0.41,-0.1211 -0.78,-0.2109 -0.14,2.4726 0.32,5.3515 -2.89,6.2109 -2.33,0.6094 -4.29,2.8008 -7.29,0.7695 -1.61,-1.0781 -1.07,0.9297 -0.74,1.8594 3.85,0.5703 7.69,-0.3398 11.53,0 2.02,0.0899 4.21,-0.4804 5.77,1.4414 v 0 c 3.45,1.7305 4.49,4.1797 3.03,8.1914 -0.85,2.328 0.11,3.109 2.11,3.309 1.54,0.148 3.01,0.089 4.39,-1.02 1.24,-0.992 2.55,-2.101 4.49,-2.2421 -2.96,-0.0898 -4.52,-1.5781 -5.21,-4.207 -0.39,-1.5117 -1.56,-2.0117 -3.05,-1.8711 -1.7,-0.1914 -1.97,-1.5391 -2.11,-2.8399 -0.15,-1.289 -0.17,-2.6328 -0.02,-3.9218 0.21,-1.9297 -1.09,-4.5899 0.89,-5.6485 2.3,-1.2304 3.93,1.4102 5.82,2.4492 0.8,0.4415 1.19,1.1211 1.19,2.0313 -0.05,1.0586 0.24,2.1992 -0.6,3.0898 -0.85,0.8985 -0.35,1.6407 0.42,2.0508 2.09,1.0977 3.59,3.4102 6.71,2.2774 2.42,-0.8672 4.24,1.5195 3.57,4.1211 -0.23,3.0308 -2.85,2.6718 -4.76,3.1988 -0.05,1.192 0.33,1.961 1.29,2.461 3.33,1.739 3.57,2.86 1.54,6.16 -1.42,2.309 -2.86,4.52 -3.3,7.411 -0.57,3.711 -3.94,5.718 -7.31,5.07 -0.87,-0.172 -1.87,-1.082 -2.42,0.289 -0.43,1.09 0.51,1.789 1.26,2.328 1.25,0.902 2.82,1.453 2.87,3.352 1.65,1.781 -0.72,2.672 -1,4 1.04,0.64 2.38,-0.11 3.15,0.781 2.22,2.578 4.1,1.48 6.06,-0.34 1.41,-1.301 2.67,-1.09 3.26,0.809 0.52,1.691 1.35,2.98 2.94,3.871 0.92,0.519 1.7,1.379 1.26,2.687 -0.81,2.434 -7.61,5.653 -9.97,4.633 -1.85,-0.812 -3.77,-1.582 -5.43,-2.699 -3.1,-2.082 -6.23,-2.871 -9.77,-1.113 1.15,0.621 2.56,0.222 3.68,1 1.12,0.781 2.52,1.562 2.13,3.011 -0.63,2.321 0.79,3.871 1.54,5.692 1.5,1.609 2.05,4.019 4.28,5.027 2.38,1.082 2.41,2.59 0.73,4.359 1.48,0.961 2.93,1.973 4.45,2.872 0.88,0.519 1.87,1.25 2.82,0.031 0.74,-1.391 2.29,-2.629 0.39,-4.34 -1.46,-1.313 -1.79,-2.84 0.05,-4.199 1.91,-1.403 3.78,-1.09 5.07,0.867 0.46,0.68 0.7,1.781 1.67,1.633 3.64,-0.551 2.76,1.808 2.55,3.769 -0.44,4.117 -3.9,6.629 -5.42,10.168 0.12,1.352 -0.14,2.653 -0.72,3.832 -1.2,2.43 -0.64,4.289 1.43,5.957 0.98,0.793 2.23,1.621 2.13,3.153 -0.1,1.48 0.54,2.55 1.62,3.41 1.29,1.027 1.59,2.469 1.23,3.879 -0.52,2.07 0.19,2.98 2.13,3.699 1.91,0.711 2.18,3.012 0.55,3.402 -2.93,0.719 -5.13,1.848 -6.45,4.715 -0.33,0.731 -2.05,0.469 -2.58,1.645 -0.76,1.726 -2.15,2.207 -3.99,2.457 -3.13,0.422 -4.12,2 -3.5,5.175 0.27,1.375 -0.3,2.348 -0.94,3.313 -1.48,2.215 -3.58,3.367 -6.37,3.066 1.89,5.703 1.89,5.703 5.34,3.457 0.02,-0.918 0.39,-1.668 1.24,-2.023 2.87,-1.207 5.88,-2.137 8.95,-2.18 2.57,-0.039 4.44,1.934 5.45,4.125 0.7,1.52 0.57,3.434 -1.93,3.688 -2.02,1.16 -4.02,2.004 -6.42,0.89 -1.19,-0.55 -2.36,-0.066 -2.95,1.27 3.26,1.488 3.83,2.992 1.87,5.621 -0.76,1.023 -1.32,1.984 -1.14,3.242 0.38,2.66 -0.92,5.129 -0.8,7.785 0.07,1.504 -0.55,2.219 -2.19,0.993 -1.82,-1.36 -3.41,-0.692 -3.38,1.214 0.01,1.614 1.38,1.786 2.51,2.004 2.24,0.438 4.03,1.231 4.71,3.715 0.36,1.317 1.32,1.555 2.47,0.598 1.35,-1.125 2.4,-0.68 3.16,0.769 3.25,2.629 3.88,5.668 1.92,9.297 -0.44,0.821 -0.95,1.516 -0.66,2.641 1.28,4.953 4.45,8.887 6.97,13.164 0.51,0.879 1.47,1.605 2.39,2.117 4.71,2.637 5.17,5.977 1.26,9.742 -0.51,0.5 -1.26,0.965 -0.54,1.719 0.47,0.492 1.14,0.934 1.91,0.73 0.33,-0.085 0.65,-0.335 0.88,-0.597 1.49,-1.738 2.55,-1.278 3.46,0.578 0.27,0.551 0.8,0.875 1.68,0.492 -0.17,-4.965 4.72,-5.902 7.36,-8.723 0.46,-0.488 1.63,-0.324 2.2,0.551 2.77,1.207 1.51,2.414 0,3.617 -0.23,1.489 0.58,2.465 1.58,3.403 0.78,0.73 1.54,1.469 2.07,2.445 2.24,4.176 2.26,4.164 6.43,3.52 2.64,-0.086 5.66,0.75 6.86,-2.832 0.02,-0.055 0.22,-0.047 0.34,-0.067 0.97,-1.746 1.94,-1.75 2.9,0.008 1.25,0.156 2.3,-0.441 3.37,-0.937 1.36,-0.629 2.88,-1.032 3.95,0.218 1.08,1.27 1.13,3.157 0.06,4.289 -1.98,2.078 -0.83,2.828 0.94,3.91 1.7,1.04 3.17,2.942 2.25,4.75 -1.14,2.278 -0.41,4.348 -0.48,6.508 -0.01,1.926 -0.01,3.848 -0.01,5.77 0.05,0.469 -0.08,1.195 0.17,1.363 2.64,1.793 2.16,4.125 1.27,6.567 0,0.238 0,0.48 0,0.718 -0.2,1.641 1.72,1.168 2.17,2.164 1.56,0.934 2.05,2.086 0.72,3.602 -2.22,1.57 -4.33,3.348 -7.19,3.613" /><path
         id="path42"
         style="fill:#b2c6c2;fill-opacity:1;fill-rule:nonzero;stroke:none"
         d="m 100.539,698.629 c -0.066,1.074 -0.6249,1.785 -1.7265,1.941 -1.0312,0.153 -1.9727,-0.113 -2.3711,-1.144 -0.9336,-2.422 -2.0234,-4.821 -2.3086,-7.43 -0.207,-1.914 1.1406,-2.914 2.582,-1.801 2.004,1.551 4.4802,3.035 3.8322,6.196 0,0.808 0.035,1.523 -0.008,2.238" /><path
         id="path44"
         style="fill:#b2c6c2;fill-opacity:1;fill-rule:nonzero;stroke:none"
         d="m 1077.72,869.832 c 1.11,-0.828 1.97,-0.137 2.35,0.68 0.89,1.914 1.52,3.953 2.1,5.504 -0.08,1.562 -0.46,2.422 -1.61,2.535 -1.15,0.109 -1.89,-0.602 -1.9,-1.668 -0.02,-1.723 -0.35,-3.254 -1.46,-4.629 -0.74,-0.918 -0.39,-1.746 0.52,-2.422" /><path
         id="path46"
         style="fill:#b2c6c2;fill-opacity:1;fill-rule:nonzero;stroke:none"
         d="m 1137.19,280.934 c -2.04,-0.02 -3.12,1.031 -3.99,2.711 -0.32,0.609 -1.3,0.406 -2.01,0.429 -0.64,1.438 -2.09,2.059 -3.32,2.567 -1.81,0.757 -3.91,0.718 -4.99,-1.399 -0.85,-1.672 -0.56,-3.726 1.24,-4.273 1.91,-0.578 3.49,-2.086 5.62,-1.953 1.39,-3.047 4.23,0.371 5.99,-1.313 0.27,-0.25 1.15,0.016 1.67,0.215 0.58,0.223 0.89,0.777 0.9,1.418 0.01,0.789 -0.42,1.605 -1.11,1.598" /><path
         id="path48"
         style="fill:#b2c6c2;fill-opacity:1;fill-rule:nonzero;stroke:none"
         d="m 498.813,1147.13 c 1.222,0.16 1.851,0.94 1.781,2.26 -0.086,1.54 -2.008,3.88 -3.297,3.78 -1.363,-0.1 -1.75,-1.06 -1.742,-2.27 0.066,-1.77 1.871,-3.95 3.258,-3.77" /><path
         id="path50"
         style="fill:#b2c6c2;fill-opacity:1;fill-rule:nonzero;stroke:none"
         d="m 531.02,1136.68 c 1.277,-0.04 2.578,0.2 2.566,1.74 -0.008,1.54 -0.777,2.74 -2.606,2.56 -1.402,0.02 -2.937,-0.04 -2.882,-1.81 0.05,-1.6 1.293,-2.43 2.922,-2.49" /><path
         id="path52"
         style="fill:#b2c6c2;fill-opacity:1;fill-rule:nonzero;stroke:none"
         d="m 644.344,1118 c 1.304,0.05 2.023,1.08 2.015,2.09 -0.015,1.75 -1.476,2.43 -2.765,2.88 -1.223,-0.06 -2.141,-0.27 -2.274,-1.47 -0.136,-1.26 1.852,-3.55 3.024,-3.5" /><path
         id="path54"
         style="fill:#b2c6c2;fill-opacity:1;fill-rule:nonzero;stroke:none"
         d="m 83.1328,322.719 c -1.418,-0.196 -2.7578,-0.899 -2.7305,-2.754 0.0157,-1.016 0.0547,-1.969 1.9532,-1.988 1.1015,0.316 2.4765,1.195 2.7929,2.777 0.211,1.066 -0.8789,2.125 -2.0156,1.965" /><path
         id="path56"
         style="fill:#b2c6c2;fill-opacity:1;fill-rule:nonzero;stroke:none"
         d="m 1081.51,235.055 c -0.04,-1.453 0.82,-2.117 2.39,-2.133 1.51,0.172 1.91,1.246 1.88,2.723 -0.02,1.371 -0.96,2.035 -1.99,2.027 -1.5,-0.012 -2.24,-1.172 -2.28,-2.617" /><path
         id="path58"
         style="fill:#b2c6c2;fill-opacity:1;fill-rule:nonzero;stroke:none"
         d="m 1089.71,910.359 c 1.5,0.043 3,0.582 2.96,2.27 -0.04,1.566 -1.67,1.309 -2.83,1.332 -1.5,0.035 -2.6,-0.477 -2.55,-2.199 0.05,-1.633 1.34,-1.324 2.42,-1.403" /><path
         id="path60"
         style="fill:#b2c6c2;fill-opacity:1;fill-rule:nonzero;stroke:none"
         d="m 72.4609,341.418 c -0.0625,1.016 0.2735,2.289 -1.3437,2.406 -2.25,0.16 -2.1094,-1.816 -2.7422,-3.176 -0.1289,-1.168 0.6055,-1.804 1.6523,-1.691 1.3477,0.145 2.5352,0.75 2.4336,2.461" /><path
         id="path62"
         style="fill:#b2c6c2;fill-opacity:1;fill-rule:nonzero;stroke:none"
         d="m 1108.55,508.906 c 0.9,0.168 2.57,-0.316 2.21,1.285 -0.3,1.297 -1.73,2.153 -3.21,2.301 -1.19,0.121 -2.23,-0.441 -2.18,-1.719 0.08,-2.035 1.74,-1.82 3.18,-1.867" /><path
         id="path64"
         style="fill:#b2c6c2;fill-opacity:1;fill-rule:nonzero;stroke:none"
         d="m 1101.17,261.746 c -1.28,0.004 -2.47,-0.035 -2.36,-1.598 0.11,-1.582 1.15,-2.843 2.59,-2.953 1.01,-0.078 1.63,1.207 1.7,2.41 0.08,1.497 -0.5,2.293 -1.93,2.141" /><path
         id="path66"
         style="fill:#b2c6c2;fill-opacity:1;fill-rule:nonzero;stroke:none"
         d="m 1049.8,756.801 c -0.08,-1.055 0.45,-1.942 1.57,-1.981 1.83,-0.058 1.97,1.313 1.99,2.739 -0.07,1.113 0.07,2.761 -1.53,2.57 -1.58,-0.188 -1.92,-1.902 -2.03,-3.328" /><path
         id="path68"
         style="fill:#b2c6c2;fill-opacity:1;fill-rule:nonzero;stroke:none"
         d="m 86.1367,331.188 c 1.7305,0.222 2.4649,1.792 2.6406,3.312 0.1329,1.156 -1.0039,1.402 -2.1132,1.438 -1.5664,-0.165 -2.0078,-1.239 -1.9375,-2.711 0.0507,-0.993 0.2695,-2.18 1.4101,-2.039" /><path
         id="path70"
         style="fill:#b2c6c2;fill-opacity:1;fill-rule:nonzero;stroke:none"
         d="m 1093.99,648.262 c 2,0.336 2.47,2.613 2.58,4.547 0.07,1.148 0.26,2.55 -1.33,2.886 -1.24,0.262 -2.93,-2.238 -2.97,-4.234 0.06,-1.387 -0.19,-3.523 1.72,-3.199" /><path
         id="path72"
         style="fill:#b2c6c2;fill-opacity:1;fill-rule:nonzero;stroke:none"
         d="m 775.961,95.2617 c -0.891,-0.1406 -2.453,-0.1914 -2.598,-1.5117 -0.136,-1.2305 1.09,-2.0117 2.43,-2.0781 1.387,-0.0625 2.484,0.7383 2.68,1.9297 0.226,1.4297 -1.09,1.5976 -2.512,1.6601" /><path
         id="path74"
         style="fill:#b2c6c2;fill-opacity:1;fill-rule:nonzero;stroke:none"
         d="m 48.5391,498.801 c -1.5235,-0.11 -2.043,-1.063 -2.0039,-2.442 0.0234,-0.832 -0.0469,-1.793 1.4218,-1.5 1.9571,0.051 3.375,0.844 3.1133,1.883 -0.3164,1.246 -1.043,2.168 -2.5312,2.059" /><path
         id="path76"
         style="fill:#b2c6c2;fill-opacity:1;fill-rule:nonzero;stroke:none"
         d="m 540.816,1135.28 c 1.024,-0.12 2.184,0.28 1.989,1.46 -0.262,1.6 -2.176,1.64 -3.114,2.73 -0.832,-0.23 -1.496,-0.61 -1.515,-1.41 -0.051,-1.74 1.051,-2.6 2.64,-2.78" /><path
         id="path78"
         style="fill:#b2c6c2;fill-opacity:1;fill-rule:nonzero;stroke:none"
         d="m 1119.45,279.703 c -1.26,-0.101 -1.9,-0.832 -1.92,-2.082 -0.02,-1.379 1.02,-1.957 2.05,-1.937 1.31,0.019 1.97,1.086 2.2,2.359 -0.3,1.25 -1.11,1.762 -2.33,1.66" /><path
         id="path80"
         style="fill:#b2c6c2;fill-opacity:1;fill-rule:nonzero;stroke:none"
         d="m 97.6445,443.359 c -0.0078,1.231 -0.6132,2.012 -1.8867,2.098 -1.3945,0.098 -2.2851,-0.523 -2.3437,-2.016 -0.0508,-1.316 0.8203,-1.558 1.875,-1.531 1.0468,0.028 2.25,-0.187 2.3554,1.449" /><path
         id="path82"
         style="fill:#b2c6c2;fill-opacity:1;fill-rule:nonzero;stroke:none"
         d="m 162.039,1097.45 c 1.844,0.16 3.004,0.76 3.16,2.27 0.121,1.18 -0.84,1.58 -1.879,1.59 -1.437,0.02 -2.183,-0.75 -2.168,-2.18 0.008,-0.86 0.207,-1.65 0.887,-1.68" /><path
         id="path84"
         style="fill:#b2c6c2;fill-opacity:1;fill-rule:nonzero;stroke:none"
         d="m 620.703,1126.58 c 0.934,0.08 1.606,0.33 1.613,1.4 0.008,1.45 -0.761,2.13 -2.164,2.18 -1.015,-0.09 -1.996,-0.42 -1.847,-1.61 0.156,-1.25 0.91,-2.1 2.398,-1.97" /><path
         id="path86"
         style="fill:#b2c6c2;fill-opacity:1;fill-rule:nonzero;stroke:none"
         d="m 74.0977,325.008 c -1.2305,-0.289 -2.8164,-0.547 -2.793,-2.211 0.0117,-0.895 0.9023,-1.629 2,-1.793 1.1601,0.512 1.9844,1.293 2.0039,2.66 0.0117,0.805 -0.3086,1.559 -1.2109,1.344" /><path
         id="path88"
         style="fill:#b2c6c2;fill-opacity:1;fill-rule:nonzero;stroke:none"
         d="m 466.988,1145.32 c 1.356,-0.05 1.973,0.57 1.844,1.88 0.051,1.25 -0.559,1.83 -1.727,1.66 -1.265,-0.19 -2.343,-0.89 -2.289,-2.24 0.047,-1.15 1.18,-1.26 2.172,-1.3" /><path
         id="path90"
         style="fill:#b2c6c2;fill-opacity:1;fill-rule:nonzero;stroke:none"
         d="m 1082.88,885.516 c 0.03,0.922 -0.97,1.464 -1.83,1.488 -1.37,0.035 -1.62,-1.281 -1.62,-2.316 -0.01,-1.094 0.78,-1.743 1.92,-1.583 1.14,0.165 1.52,1.012 1.53,2.411" /><path
         id="path92"
         style="fill:#b2c6c2;fill-opacity:1;fill-rule:nonzero;stroke:none"
         d="m 1069.64,904.551 c -0.14,-0.953 0.55,-1.188 1.32,-1.344 1.63,0.176 2.06,1.488 2.33,2.75 0.17,0.773 -0.49,1.387 -1.31,1.305 -1.57,-0.157 -2.14,-1.324 -2.34,-2.711" /><path
         id="path94"
         style="fill:#b2c6c2;fill-opacity:1;fill-rule:nonzero;stroke:none"
         d="m 1063.6,79.2695 c -1.34,-0.1992 -1.66,-1.2187 -1.54,-2.3984 0.09,-0.9219 0.55,-1.5625 1.59,-1.6094 0.98,0.5078 1.9,1.168 1.86,2.3789 -0.04,1.0899 -0.77,1.7891 -1.91,1.6289" /><path
         id="path96"
         style="fill:#b2c6c2;fill-opacity:1;fill-rule:nonzero;stroke:none"
         d="m 82.5039,303.91 c 0.0547,1.102 -0.3086,1.731 -1.3867,1.735 -1.2695,0.003 -2.0078,-0.622 -2.1133,-1.891 -0.0781,-0.973 0.3086,-1.613 1.3867,-1.613 1.2696,-0.004 1.9766,0.632 2.1133,1.769" /><path
         id="path98"
         style="fill:#b2c6c2;fill-opacity:1;fill-rule:nonzero;stroke:none"
         d="m 1090.11,866.121 c 0,-1.09 0.27,-1.894 1.57,-1.84 1.09,0.043 1.77,0.571 1.95,1.68 -0.07,1.133 -0.71,1.727 -1.8,1.832 -1.2,0.117 -1.73,-0.477 -1.72,-1.672" /><path
         id="path100"
         style="fill:#b2c6c2;fill-opacity:1;fill-rule:nonzero;stroke:none"
         d="m 1075.95,883.023 c 0.73,0.063 1.56,0.286 1.45,1.149 -0.17,1.34 -0.9,2.648 -2.29,2.797 -1.13,0.121 -0.74,-1.18 -0.84,-1.774 -0.08,-1.355 0.19,-2.297 1.68,-2.172" /><path
         id="path102"
         style="fill:#b2c6c2;fill-opacity:1;fill-rule:nonzero;stroke:none"
         d="m 63.9766,518.418 c 1.1093,-0.152 1.7109,0.512 1.9336,1.535 -0.043,1.129 -0.6133,1.809 -1.6954,1.86 -0.9179,0.042 -1.5703,-0.504 -1.7148,-1.418 -0.168,-1.102 0.3945,-1.832 1.4766,-1.977" /><path
         id="path104"
         style="fill:#b2c6c2;fill-opacity:1;fill-rule:nonzero;stroke:none"
         d="m 112.617,708.691 c 1.321,0.118 1.629,1.211 2.016,2.372 -0.297,0.847 -0.992,1.117 -1.903,1.066 -1.39,-0.078 -1.351,-1.078 -1.324,-2.063 0.02,-0.789 0.278,-1.461 1.211,-1.375" /><path
         id="path106"
         style="fill:#b2c6c2;fill-opacity:1;fill-rule:nonzero;stroke:none"
         d="m 1082.02,89.2813 c -0.87,-0.3907 -1.78,-0.9297 -1.76,-1.961 0.03,-1.1914 1.04,-1.4414 2.06,-1.3906 1.11,0.0391 1.33,0.8008 1.24,1.7187 -0.09,0.9024 -0.52,1.543 -1.54,1.6329" /><path
         id="path108"
         style="fill:#b2c6c2;fill-opacity:1;fill-rule:nonzero;stroke:none"
         d="m 94.0391,584.988 c 0.0429,1.141 -0.3321,1.735 -1.4063,1.723 -1.082,-0.012 -1.4219,-0.652 -1.4101,-1.602 0.0117,-0.824 -0.0664,-1.8 1.1132,-1.812 1.1368,-0.012 1.6172,0.793 1.7032,1.691" /><path
         id="path110"
         style="fill:#b2c6c2;fill-opacity:1;fill-rule:nonzero;stroke:none"
         d="m 1014.67,76.9609 c -1.1,0.1094 -2.05,-0.4218 -2.79,-1.5 0.27,-0.6914 0.78,-1.1015 1.56,-1.0898 0.89,0.0078 2.06,-0.3711 2.32,0.9883 0.15,0.7695 -0.34,1.5312 -1.09,1.6015" /><path
         id="path112"
         style="fill:#b2c6c2;fill-opacity:1;fill-rule:nonzero;stroke:none"
         d="m 143.066,129.75 c -0.043,0.371 0.086,1.359 -0.882,1.238 -0.946,-0.117 -1.625,-0.929 -1.836,-1.898 -0.184,-0.828 0.285,-1.32 1.136,-1.371 1.235,-0.078 1.645,0.633 1.582,2.031" /><path
         id="path114"
         style="fill:#b2c6c2;fill-opacity:1;fill-rule:nonzero;stroke:none"
         d="m 837.934,93.7305 c -1.024,0.039 -1.485,-0.4922 -1.454,-1.4805 0.024,-0.8516 0.485,-1.25 1.309,-1.2812 1.024,-0.0274 1.488,0.4804 1.453,1.4804 -0.031,0.8399 -0.488,1.25 -1.308,1.2813" /><path
         id="path116"
         style="fill:#b2c6c2;fill-opacity:1;fill-rule:nonzero;stroke:none"
         d="m 442.676,1107.78 c 1.265,0.86 1.359,1.86 0.23,2.94 -0.957,-0.01 -1.914,-0.01 -2.867,-0.01 -1.18,-1.03 -0.937,-2.14 0.016,-3.09 0.836,-0.83 1.8,-0.4 2.621,0.16" /><path
         id="path118"
         style="fill:#b2c6c2;fill-opacity:1;fill-rule:nonzero;stroke:none"
         d="m 812.777,1100.65 c 0.793,0 1.696,-0.13 1.907,1 -0.047,0.93 -0.696,1.11 -1.438,1.12 -0.93,0.02 -2.141,0.14 -2.277,-1.01 -0.114,-0.97 0.976,-1.12 1.808,-1.11" /><path
         id="path120"
         style="fill:#b2c6c2;fill-opacity:1;fill-rule:nonzero;stroke:none"
         d="m 919.129,1105.25 c 1.207,-0.01 0.793,1.15 0.914,1.89 -0.125,0.73 0.242,1.9 -0.984,1.81 -0.907,-0.06 -1.176,-1 -1.164,-1.88 0.011,-0.89 0.324,-1.81 1.234,-1.82" /><path
         id="path122"
         style="fill:#b2c6c2;fill-opacity:1;fill-rule:nonzero;stroke:none"
         d="m 930.77,88.5586 c -0.797,-0.1797 -1.243,-0.6875 -1.27,-1.457 -0.039,-1.1914 0.832,-1.2618 1.68,-1.1797 0.699,0.0664 1.531,0.2969 1.332,1.1992 -0.176,0.8008 -0.848,1.3477 -1.742,1.4375" /><path
         id="path124"
         style="fill:#b2c6c2;fill-opacity:1;fill-rule:nonzero;stroke:none"
         d="m 464.988,1110.25 c 0.813,-0.2 1.297,0.32 1.528,1.09 0.019,0.68 -0.407,1.15 -0.973,1.29 -0.809,0.19 -1.355,-0.3 -1.496,-1.08 -0.121,-0.69 0.371,-1.16 0.941,-1.3" /><path
         id="path126"
         style="fill:#b2c6c2;fill-opacity:1;fill-rule:nonzero;stroke:none"
         d="m 65.5313,898.453 c 0.5078,-0.238 0.8476,-0.031 1.0507,0.512 0.086,0.605 -0.1211,1.101 -0.8125,1.187 -0.4492,0.055 -0.9414,-0.039 -0.9609,-0.66 -0.0195,-0.504 0.2969,-0.836 0.7227,-1.039" /><path
         id="path128"
         style="fill:#b2c6c2;fill-opacity:1;fill-rule:nonzero;stroke:none"
         d="m 1153.09,331.164 c -0.43,0.305 -0.84,-0.019 -0.91,-0.578 -0.07,-0.57 -0.12,-1.141 0.49,-1.496 0.63,-0.063 0.81,0.398 0.8,0.848 -0.01,0.425 -0.1,1.027 -0.38,1.226" /><path
         id="path130"
         style="fill:#b2c6c2;fill-opacity:1;fill-rule:nonzero;stroke:none"
         d="m 164.785,1092.13 c -0.015,-0.56 -0.058,-1.29 0.781,-1.2 0.516,0.05 0.555,0.63 0.559,0.27 -0.023,1.29 -0.035,1.81 -0.629,1.86 -0.648,0.06 -0.699,-0.5 -0.711,-0.93" /><path
         id="path132"
         style="fill:#b2c6c2;fill-opacity:1;fill-rule:nonzero;stroke:none"
         d="m 145.734,97.3008 c -0.3,-0.0117 -0.722,-0.1524 -0.871,-0.3789 -0.203,-0.3125 0.024,-0.6211 0.524,-0.7617 0.211,0.1289 0.57,0.2382 0.746,0.4882 0.273,0.3829 -0.043,0.6602 -0.399,0.6524" /><path
         id="path134"
         style="fill:#b2c6c2;fill-opacity:1;fill-rule:nonzero;stroke:none"
         d="m 1026.34,319.473 c 1.33,-0.258 2.39,0.347 2.45,1.843 0.08,1.84 -1.02,2.77 -2.94,3.164 -1.3,-0.332 -2.7,-0.968 -2.63,-2.644 0.07,-1.738 1.75,-2.098 3.12,-2.363" /><path
         id="path136"
         style="fill:#b2c6c2;fill-opacity:1;fill-rule:nonzero;stroke:none"
         d="m 1031.79,318.176 c 0.84,0.004 1.18,0.683 1.32,1.461 -0.07,0.91 -0.4,1.695 -1.44,1.683 -0.82,-0.011 -1.25,-0.683 -1.28,-1.457 -0.04,-0.925 0.37,-1.699 1.4,-1.687" /></g></g></svg>